<?xml version="1.0" encoding="UTF-8"?>
<svg id="Logo_type_sticker_bord_blanc" xmlns="http://www.w3.org/2000/svg" version="1.1" viewBox="0 0 1080 1080">
  <!-- Generator: Adobe Illustrator 30.4.0, SVG Export Plug-In . SVG Version: 2.1.4 Build 226)  -->
  <defs>
    <style>
      .st0 {
        fill: #1a1a35;
      }

      .st1 {
        fill: #00005f;
      }

      .st2 {
        fill: #fff;
      }

      .st3 {
        fill: #905aa4;
      }
    </style>
  </defs>
  <g id="Logo__x2B__Marge_Blanche">
    <g id="Marge_Blanche">
      <path class="st2" d="M450.7,284.8c11.1,0,18.5,5.5,20.9,16.9,1.1,5.4-1.2,11.4-4.2,14.5,6.9,1.1,12,6.4,13.3,13,3.1,14.9-4.5,23.8-20.1,27.2l-34.1,7-14.7-71.5,30.7-6.3c2.9-.6,5.6-.8,8.1-.8M440.6,315.2l3.6-.7c4.5-.9,6.2-2,5.7-4.5-.3-1.6-1.3-2.3-3.3-2.3-1,0-2.2.2-3.7.5l-3.6.7,1.3,6.3M445.1,337l4.4-.9c5.1-1,7.2-2.2,6.6-5.2-.4-2-1.6-2.7-3.8-2.7-1.1,0-2.6.2-4.3.6l-4.4.9,1.5,7.4M450.7,258.7c-4.1,0-8.5.4-13,1.3-.1,0-.2,0-.3,0l-30.7,6.3c-14.1,2.9-23.2,16.7-20.3,30.8l14.7,71.5c1.4,6.8,5.4,12.7,11.2,16.5,4.3,2.8,9.3,4.3,14.3,4.3s3.5-.2,5.2-.5l34.1-7c.1,0,.2,0,.3,0,30.2-6.6,45.9-29.3,40-57.9-1.4-6.8-4.3-12.9-8.4-18.1,0-3.2-.2-6.3-.8-9.4-4.8-23.3-22.6-37.7-46.4-37.7h0Z"/>
      <path class="st2" d="M489.8,278.3l26.2.5c19.2.7,34.2,13.2,33.8,37.2-.5,23.8-15.6,35.8-34.3,35.8s-.6,0-.9,0l-26.2-.5,1.4-73M514.5,329.7c7.1,0,10.6-5.6,10.7-14.2.2-8.4-3.2-14.5-10.5-14.6h-2s-.6,28.7-.6,28.7h2c0,0,.2,0,.3,0M489.8,252.3c-14.2,0-25.8,11.3-26,25.5l-1.4,73c-.1,6.9,2.5,13.6,7.3,18.6,4.8,5,11.4,7.9,18.3,8l26.2.5c.5,0,.9,0,1.4,0,34.8,0,59.7-25.2,60.4-61.4.7-36.2-23.5-62.4-58.9-63.7-.1,0-.3,0-.4,0l-26.2-.5c-.2,0-.3,0-.5,0h0Z"/>
      <path class="st2" d="M568.8,282.6l43.9,9.9-4.7,20.8-21-4.8-.9,4.1,19.5,4.4-4.7,20.8-19.5-4.4-1,4.6,22.1,5-4.7,20.8-44.9-10.2,16.1-71.2M568.8,256.6c-11.9,0-22.7,8.2-25.4,20.3l-16.1,71.2c-1.5,6.7-.3,13.8,3.4,19.7,3.7,5.8,9.5,10,16.3,11.5l44.9,10.2c1.9.4,3.9.6,5.8.6,11.9,0,22.7-8.2,25.4-20.3l4.7-20.8c.9-3.9.8-7.9,0-11.7l2.2-9.7c1.6-2.5,2.8-5.3,3.5-8.3l4.7-20.8c1.5-6.7.3-13.8-3.4-19.7-3.7-5.8-9.5-10-16.3-11.5l-43.9-9.9c-1.9-.4-3.9-.6-5.8-.6h0Z"/>
      <path class="st2" d="M756.3,290.7c5.8,0,10.5,4.4,12.4,9.5,6.7,17.9,10.3,37.5,10.4,56.7.3,35.6-11.5,69.6-33.2,95.9-10.3,12.5-24.3,24.6-41.6,35.9-6.5,4.3-13.1,7.9-19.7,11,10.1,22,15.7,46.4,15.7,72,0,99.4-84.3,179.9-188.3,179.9s-188.3-80.6-188.3-179.9,1-20.8,2.8-30.8c-3.6-6.6-4.5-14.7-2.4-22.4,2.4-8.7,8.1-15.8,15.7-19.5,4.8-10.4,10.6-20.2,17.3-29.4-.5-.6-1.1-1.3-1.6-1.9-24.9-29.5-43.5-63.8-54-99.2-2-6.6,2.1-13.8,9-16,1.1-.4,2.3-.6,3.5-.6,2,0,4,.5,5.9,1.5,3.3,1.7,5.7,4.7,6.7,8.1,1.3,4.5,2.8,9,4.4,13.3.8,2.2,1.6,4.4,2.5,6.6.4,1.1.9,2.2,1.3,3.3,0,.2.2.4.2.6,0,0,0,.1,0,.2,0,.2.2.4.3.6,3.9,9,8.3,17.9,13.1,26.2,4.4,7.8,9.2,15.3,14.3,22.5,1.3,1.8,2.6,3.7,4,5.5.6.8,1.2,1.6,1.8,2.3h0c0,.1.1.3.1.3l.9,1.2c1.5,1.8,2.9,3.6,4.4,5.4,34.4-35.4,83.5-57.6,138.1-57.6s3.4,0,5.1,0c3.5-1.4,7-2.5,10.7-3.3l.8-.2c4.3-.9,8.7-1.3,13.1-1.3,19.7,0,39.1,8.7,53.7,23.3,31.6,14.9,58.2,38.1,76.7,66.6h0c8.3-3.9,16.8-9,25.3-15,1-.7,2-1.4,3-2.2l.8-.6c.2-.1.4-.3.6-.4l.3-.2c1.5-1.2,2.9-2.3,4.4-3.5,3.2-2.6,6.4-5.5,9.4-8.3,3-2.8,5.6-5.5,8-8.1,1.3-1.5,2.6-3,3.9-4.6l.7-.9c.1-.2.3-.4.5-.6.1-.2.2-.3.3-.4l.7-1c4.4-6,8.3-12.5,11.5-19.2.5-1,.9-1.9,1.3-2.8l.7-1.5c0-.1.1-.2.2-.4.4-1.1.8-2.2,1.2-3.2l.2-.7c1.3-3.5,2.5-7.2,3.5-10.8,1-3.5,1.8-7.1,2.5-10.7.3-1.7.6-3.5.9-5.3,0-.8,0-1.5.3-2.1,0-.6.1-1.2.2-1.8.7-7.4.9-15,.5-22.5v-1.4c-.2-2.9-.3-5.8-.8-8.6-.1-.3-.2-.7-.2-1l-.2-1.6c-.2-.9-.3-1.8-.5-2.8-.3-1.7-.6-3.4-1-5.1-1.6-7.4-3.8-15-6.5-22.3-1-2.8-.8-5.9.5-8.8,1.6-3.4,4.9-6.2,8.4-7.4,1.3-.4,2.5-.6,3.7-.6M756.3,264.6c-4,0-7.9.6-11.8,1.9-10.2,3.3-19.1,11.1-23.8,20.8-4.5,9.3-5,19.7-1.5,29.2,2.3,6,4.1,12.3,5.4,18.6.3,1.4.6,2.8.8,4.2l.4,2.4.2,1.3c0,.4.2,1.1.3,1.9.1,1.2.2,2.9.3,4.5v.6s0,1.3,0,1.3c0,0,0,.2,0,.2.3,6,.2,12.1-.4,18.3-.3,1.7-.5,3.2-.6,4.4-.1.8-.3,1.7-.4,2.5,0,.1,0,.2,0,.3-.5,2.7-1.2,5.6-2,8.6-.8,2.9-1.7,5.8-2.8,8.8v.4c-.3.4-.5.9-.6,1.3,0,.2-.1.4-.2.5,0,.1-.1.3-.2.4l-.6,1.3c-.3.8-.7,1.5-1.1,2.3-2.6,5.3-5.6,10.4-9,15l-.7,1s0,0,0,0c-.1.2-.2.3-.4.5l-.4.5c-.9,1.1-1.9,2.3-3,3.4-1.9,2.1-4,4.3-6.4,6.5-2.8,2.6-5.6,5-8.2,7.2-1.1.9-2.4,1.9-3.6,2.9h0c-.2.2-.4.3-.6.5,0,0-.2.1-.3.2l-.6.5c-.8.6-1.6,1.1-2.4,1.7-1,.7-2,1.4-3,2.1-18.7-22.4-42.1-40.9-68.8-54.1-19.3-17.7-44.1-27.7-68.8-27.7-6.1,0-12.3.6-18.3,1.8-.2,0-.4,0-.6.1l-.7.2c-3.1.7-6.3,1.6-9.4,2.6-.2,0-.5,0-.7,0-30.2,0-59.4,5.9-86.8,17.6-17,7.3-32.8,16.5-47.2,27.6-2.4-3.8-4.8-7.7-7-11.6-4.3-7.6-8.3-15.5-11.8-23.6,0-.2-.2-.4-.3-.6,0-.2-.1-.3-.2-.5-.4-1-.8-1.9-1.2-2.9,0,0,0-.1,0-.2-.7-1.6-1.4-3.5-2.2-5.8-1.4-4-2.7-8-3.8-11.8-3-10.2-10.2-18.9-19.6-23.8-5.5-2.9-11.8-4.5-18-4.5-4,0-7.9.6-11.7,1.9-20.1,6.5-31.8,28.2-25.8,48.2,9.9,33.6,26.5,66.3,48.5,95.4-1.9,3.2-3.7,6.5-5.4,9.8-9.9,7.5-17.2,18.2-20.6,30.6-3,10.9-2.7,22.1.6,32.5-1.3,9.2-1.9,18.5-1.9,27.7,0,113.6,96.2,206,214.4,206s214.4-92.4,214.4-206-3.1-40.8-9.3-60.2c.5-.3,1-.6,1.5-1,19.5-12.8,35.5-26.6,47.4-41.1,25.6-31,39.5-71,39.2-112.7-.2-22.2-4.3-44.9-12.1-65.6-5.9-15.8-20.7-26.4-36.8-26.4h0Z"/>
      <path class="st2" d="M425.7,770l18,7.7c9.1,4,12.7,10.3,9.2,18.6-1.4,3.2-4.7,5.5-7.3,6,3.2,3,3.9,7.5,2.2,11.4-2.5,5.9-6.6,8.7-11.8,8.7s-5.2-.6-8.2-1.9l-20-8.5,17.9-42M437.2,793.8c.8,0,1.3-.3,1.6-1.1.6-1.4-.3-2.3-2.9-3.4l-2.1-.9-1.6,3.7,2.1.9c1.3.5,2.2.8,2.9.8M432.7,807c.9,0,1.5-.4,1.8-1.3.7-1.7-.4-2.7-3.4-4l-2.6-1.1-1.8,4.3,2.6,1.1c1.5.6,2.6,1,3.4,1M425.7,743.9c-3.3,0-6.6.6-9.7,1.9-6.4,2.6-11.5,7.6-14.2,14l-17.9,42c-2.7,6.4-2.8,13.5-.2,19.9,2.6,6.4,7.6,11.5,14,14.2l20,8.5c.1,0,.2,0,.3.1,6.1,2.5,12.2,3.8,18.1,3.8,15.8,0,29.2-9.2,35.8-24.6,1.8-4.3,2.8-8.8,3-13.3.8-1.3,1.5-2.7,2.1-4.1,9-21.1-.3-42.8-22.6-52.6-.1,0-.2,0-.3-.1l-18-7.7c-3.3-1.4-6.7-2.1-10.2-2.1h0Z"/>
      <path class="st2" d="M476.4,787.2c.8,0,1.5,0,2.1.2,7,1.3,16,11.1,14,21.6l-5.2,27.1-14.4-2.7,1.7-8.8-6.4-1.2-1.7,8.8-14.4-2.7,5.2-27.1c1.8-9.5,11.9-15.1,19-15.1M477.2,811.4l.8-4c.4-2.2,0-4.8-2.2-5.3-.2,0-.4,0-.5,0-1.9,0-3.3,2-3.7,4.1l-.8,4,6.5,1.2M476.4,761.1c-18.5,0-40.3,13.6-44.6,36.3l-5.2,27.1c-2.7,14.1,6.6,27.8,20.7,30.5l14.4,2.7c1.1.2,2.2.3,3.2.4,1,.3,2.1.6,3.2.8l14.4,2.7c1.6.3,3.3.5,4.9.5,5.2,0,10.3-1.5,14.7-4.5,5.7-3.9,9.7-9.9,10.9-16.7l5.2-27.1c2.3-11.9-.6-24.2-8.2-34.5-6.8-9.3-16.5-15.7-26.6-17.6-2.3-.4-4.6-.7-7-.7h0Z"/>
      <path class="st2" d="M532.7,790.7l.2,11.9c.1,6.2-3.3,9.4-6.8,10.3h7.3c0-.1.5,23.4.5,23.4l-14.7.3-.3-15.2c0-2.2-1.4-3.3-3.2-3.3s0,0,0,0h-2.3s.4,18.7.4,18.7l-14.7.3-.9-45.6,14.7-.3.3,14.6h2c1.8,0,3.2-1.2,3.1-3.5l-.2-11.2,14.7-.3M532.7,764.7c-.2,0-.4,0-.5,0l-14.7.3c-.9,0-1.7,0-2.6.2-.7,0-1.4,0-2,0s-.4,0-.5,0l-14.7.3c-14.4.3-25.8,12.2-25.5,26.6l.9,45.6c.1,6.9,3,13.5,8,18.3,4.9,4.7,11.3,7.3,18,7.3s.4,0,.5,0l14.7-.3c.9,0,1.8,0,2.7-.2.7,0,1.5,0,2.2,0s.4,0,.5,0l14.7-.3c14.4-.3,25.8-12.2,25.5-26.6l-.5-23.6c0-1.9-.3-3.7-.7-5.5.1-1.5.2-3.1.2-4.7l-.2-11.9c-.3-14.2-11.9-25.5-26-25.5h0Z"/>
      <path class="st2" d="M563.1,784.3l2.8,13.1-13.2,2.8.5,2.5,12.2-2.6,2.8,13.1-12.2,2.6.6,2.9,13.8-2.9,2.8,13.1-28.2,6-9.5-44.6,27.5-5.9M563.1,758.2c-1.8,0-3.6.2-5.4.6l-27.5,5.9c-14.1,3-23.1,16.8-20.1,30.9l9.5,44.6c1.4,6.8,5.5,12.7,11.3,16.4,4.3,2.8,9.2,4.2,14.2,4.2s3.6-.2,5.4-.6l28.2-6c14.1-3,23.1-16.8,20.1-30.9l-2.8-13.1c-.7-3.1-1.8-5.9-3.5-8.5l-.6-2.7c.2-2.3,0-4.7-.5-7.1l-2.8-13.1c-2.6-12.3-13.4-20.6-25.5-20.6h0Z"/>
      <path class="st2" d="M590.9,775.3c6.3,0,12,2.9,15.2,10.4,2,4.8,1.6,9.6-.4,13.2l11.6,12.5-13.5,5.7-6.8-7.4-3.8,1.6,3.7,8.7-13.5,5.7-17.9-41.9,14.4-6.2c3.6-1.5,7.3-2.4,10.9-2.4M588.2,799.6l1.5-.6c3-1.3,4.2-3,2.7-6.3-.9-2.2-2.1-3.1-3.7-3.1-.8,0-1.7.2-2.7.7l-1.5.6,3.7,8.7M590.9,749.2c-6.9,0-14.1,1.5-21.1,4.5l-14.4,6.2c-6.4,2.7-11.4,7.8-14,14.2s-2.5,13.6.2,19.9l17.9,41.9c4.2,9.9,13.9,15.8,24,15.8s6.9-.7,10.2-2.1l13.5-5.7c1.2-.5,2.3-1.1,3.3-1.7,1.2-.3,2.4-.7,3.6-1.2l13.5-5.7c7.8-3.3,13.5-10.2,15.3-18.5s-.6-16.9-6.4-23.1l-2.9-3.2c-.2-5.1-1.3-10.2-3.4-15-7-16.5-21.7-26.3-39.2-26.3h0Z"/>
    </g>
    <g id="LOGO">
      <ellipse class="st3" cx="512" cy="571.7" rx="188.3" ry="179.9"/>
      <ellipse class="st1" cx="517" cy="694.8" rx="119.2" ry="19.5"/>
      <g>
        <path class="st1" d="M411.9,291.9l30.7-6.3c15.7-3,26.1,2.1,28.9,16.1,1.1,5.4-1.2,11.4-4.2,14.5,6.9,1.1,12,6.4,13.3,13,3.1,14.9-4.5,23.8-20.1,27.2l-34.1,7-14.7-71.5ZM444.2,314.4c4.5-.9,6.2-2,5.7-4.5-.5-2.4-2.5-2.8-7-1.9l-3.6.7,1.3,6.3,3.6-.7ZM449.5,336.1c5.1-1,7.2-2.2,6.6-5.2s-3-3.2-8.1-2.2l-4.4.9,1.5,7.4,4.4-.9Z"/>
        <path class="st1" d="M489.8,278.3l26.2.5c19.2.7,34.2,13.2,33.8,37.2-.5,24.2-16,36.2-35.2,35.8l-26.2-.5,1.4-73ZM512.2,329.7h2c7.3.2,10.8-5.5,11-14.1.2-8.4-3.2-14.5-10.5-14.6h-2s-.6,28.7-.6,28.7Z"/>
        <path class="st1" d="M568.8,282.6l43.9,9.9-4.7,20.8-21-4.8-.9,4.1,19.5,4.4-4.7,20.8-19.5-4.4-1,4.6,22.1,5-4.7,20.8-44.9-10.2,16.1-71.2Z"/>
      </g>
      <path class="st2" d="M768.7,300.2c-2.3-6.1-8.7-11.3-16.1-8.9-3.5,1.2-6.8,4-8.4,7.4-1.4,2.9-1.6,6-.5,8.8,2.8,7.4,4.9,14.9,6.5,22.3.3,1.7.7,3.4,1,5.1.2.9.3,1.8.5,2.8l.2,1.6c0,.3,0,.6.2,1,.4,2.8.6,5.7.7,8.6v1.4c.5,7.5.3,15.1-.5,22.5,0,.6-.1,1.2-.2,1.8-.3.6-.3,1.3-.3,2.1-.3,1.8-.5,3.5-.9,5.3-.7,3.6-1.5,7.2-2.5,10.7-1,3.6-2.2,7.3-3.5,10.8l-.2.7c-.4,1.1-.8,2.2-1.2,3.2,0,.1-.1.3-.2.4l-.7,1.5c-.4,1-.9,1.9-1.3,2.8-3.3,6.8-7.1,13.3-11.5,19.2l-.7,1c0,.1-.2.3-.3.4-.2.2-.3.4-.5.6l-.7.9c-1.3,1.5-2.6,3.1-3.9,4.6-2.4,2.7-5,5.3-8,8.1-3,2.8-6.2,5.6-9.4,8.3-1.4,1.2-2.9,2.3-4.4,3.5l-.3.2c-.2.2-.4.3-.6.4l-.8.6c-1,.7-2,1.5-3,2.2-8.5,6.1-17,11.1-25.3,15-.6.3-1.3.6-1.9.8l-1.4.6c-.5.2-1,.4-1.6.6-2.2.9-4.5,1.7-6.6,2.3-2.2.7-4.5,1.3-6.6,1.8-.3,0-.7.2-1,.2-1.6-3-3.3-6-5.2-8.8-7.9-11.9-18.5-22.3-30.9-29.6-.1,0-.2-.1-.3-.2h0s-.3-.9-.3-.9c-.1-.4-.2-.8-.4-1.1,0-.3-.2-.5-.2-.7-.3-.7-.5-1.5-.8-2.2-.2-.4-.3-.8-.5-1.2-14.6-35.5-51.2-57.4-85.7-50.4l-.8.2c-18.1,3.9-34.3,15.6-44.7,31.4-4.6,6.9-8,14.5-10.1,22.7-.5,2.1-1,4.3-1.3,6.4-8.1-2.7-14-4.3-20.8-5.3-3.6-.5-7.5-.9-12.2-1.3-5.8-.4-10.6,0-14.6,1.6-3.8,1.4-7,4.3-8.4,7.6-1.2,2.8-1.2,5.8,0,8.6,3,7.2,10.2,11.6,17.5,15.2,7.9,3.9,16.7,5.6,23.7,6.6.4,0,.8,0,1.2.2.5,0,1.1.1,1.7.2.8.1,1.5.2,2.3.2.8,0,1.7.2,2.5.2.5,0,1,0,1.4,0,1,0,1.9.1,2.8.2.8,0,1.7,0,2.5.1h0c-2.1,6.4-3.4,12.9-4,19.6-.2,1.9-.3,3.8-.4,5.7h0s0,0,0,0c-2.1-.4-4.2-.8-6.4-1.3-4.1-.9-8.2-2.1-12.2-3.4-1.9-.6-3.8-1.3-5.6-2l-2.6-1.1h0l-1.3-.6c-7.6-3.4-15.2-7.6-22.6-12.4-3.2-2.1-6.5-4.3-9.5-6.7,0,0-.1-.1-.2-.2h0c-.2-.2-.3-.3-.5-.4l-1.2-.9c-.8-.6-1.5-1.2-2.3-1.9-1.8-1.5-3.6-3-5.3-4.6-6.4-5.7-12.7-12-18.7-18.8-3-3.3-5.9-6.8-8.8-10.4l-.9-1.2h-.1c0-.1,0-.3,0-.3-.6-.8-1.2-1.5-1.8-2.3-1.3-1.8-2.7-3.6-4-5.5-5.1-7.2-9.9-14.7-14.3-22.5-4.8-8.4-9.2-17.2-13.1-26.2,0-.2-.2-.4-.3-.6,0,0,0-.1,0-.2,0-.2-.2-.4-.2-.6-.5-1.1-.9-2.2-1.3-3.3-.9-2.2-1.7-4.4-2.5-6.6-1.6-4.3-3-8.8-4.4-13.3-1-3.4-3.5-6.4-6.7-8.1-3-1.6-6.3-1.9-9.4-.9-6.9,2.2-10.9,9.4-9,16,10.4,35.4,29.1,69.7,54,99.2,19,22.6,50.6,51.9,93,63.5,6.7,1.8,13.5,3.1,20.4,3.9,2.5,12.7,7.2,25.1,14.3,35.7,2.3,3.4,4.8,6.6,7.5,9.7,2.8,3.1,5.8,6,8.9,8.6,3.3,2.7,6.7,5.2,10.3,7.4,5.9,3.6,12.9,7.8,19.7,9.5-.7,1.7-1.3,3.4-2.1,5-.4.8-.7,1.5-1.1,2.2l-.7,1.2c-1.3,2.2-2.7,4.3-4.3,6.4-1.5,2-3,3.9-4.6,5.7l-1,1.1c-.7.7-1.3,1.3-2,1.9-2,1.8-4.1,3.6-6.3,5.3-1.2-1.2-2.4-2.3-3.5-3.5-2.7-2.8-5.4-5.9-8.1-9.1-4.3-5.2-8.3-10.9-12.2-16.4l-2.2-3.1c-9.4-13.2-22.6-29.2-41.5-35.2-11.1-3.5-21.5-3.8-30.9-1-2.9.9-5.8,2.1-8.7,3.6-.6-3.7-1.2-7.6-1.7-11.6-.3-2.6-.6-5.3-.8-8-1.1-11.4-2.2-23.2-8.3-33.4-5.3-8.9-11.6-14.8-19.7-18.6-8.2-3.8-18.1-4-27.3-.6-8.9,3.3-15.8,11-18.5,20.8-2.6,9.5-.7,19.6,5.2,26.8,8.4,10.3,21.8,11.6,32,7.6.2,1.8.3,3.6.5,5.4.4,3.9.8,8,1.3,12,1.7,11.4,4.2,22.6,7.7,34.1,7.2,23.3,19.8,43,36.6,56.8,16.4,13.6,38.3,21.7,59.9,22.3,6.5.2,12.9-.3,19.2-1.2,6.5-1,12.9-2.7,19-5,3.5,2.2,7.1,4.3,10.8,6.1,19.3,9.8,41.5,13.5,61.3,10.4,3.4-.5,6.7-1.3,9.9-2.2,12.4-3.6,23.1-9.2,31.7-16.6,9.3-7.9,16.5-17.7,21-28.3,5.8-13.7,6.4-27.6,4.2-41.5-1-6.6-2.7-13.1-4.7-19.6,6.5-6,12.1-12.9,16.2-20.7,3.7-7.1,6.1-14.6,7.2-22.4,1.3-8.9,1.2-18.2,0-27.1-.3-2.4-.8-4.9-1.3-7.3,14.1-3.5,28.4-10,42.5-19.2,17.3-11.3,31.3-23.4,41.6-35.9,21.7-26.3,33.5-60.4,33.2-95.9-.2-19.2-3.8-38.8-10.4-56.7ZM439.9,638.8l-1,1.9.8-2.1c-2.3-1.4-4.3-2.6-6.3-4-1.9-1.4-3.8-2.9-5.6-4.5l-.4-.3c-.9-1-1.8-1.9-2.8-2.9-2.7-2.9-5.2-6.1-7.6-9.6,7.4-2.1,13.4-6.7,17.9-13.9,1.8,1.2,3.5,2.5,5.3,4.1l.6.6c1.1,1.1,2.1,2.2,3.1,3.3,4.7,5.3,8.8,11.1,12.8,16.8,2.1,3,4.2,6,6.4,8.9,2.4,3.3,4.9,6.4,7.5,9.4-5.2-.2-10.4-.8-15.4-2-4.2-1.1-8.1-2.6-11.6-4.1-1.2-.6-2.4-1.1-3.6-1.7ZM566.5,611.6h0c0,0,.2,0,.3,0,.3,0,.6,0,.9,0,1.3,0,2.7-.1,4-.2,1,0,1.9-.1,2.9-.2.5,0,.9,0,1.3-.1.5,0,.9,0,1.3-.1.7,0,1.3-.1,2-.2,1.3-.1,2.6-.3,3.8-.4.6,0,1.2-.2,1.8-.2l.8-.2h0s.3,0,.3,0c.1,0,.3,0,.5,0,0,0,.1,0,.2,0h.4c.4-.2.8-.2.8-.2,3.6-.6,7-1.5,10.2-2.3,3.5-.8,6.9-1.8,10.3-3,1.1,4.7,1.7,9.1,2,13.3,0,3.9-.5,7.8-1.2,11.4-.8,2.6-1.8,5.2-3,7.5l-.2.4c-.2.4-.4.7-.7,1.1-1,1.5-2,3-3.1,4.4-.5.7-1,1.3-1.6,2-.1,0-.4.4-.6.6-.3.3-.6.6-.7.7-.6.6-1.3,1.2-1.9,1.7-2,1.7-4.2,3.4-6.8,5.1-3.6,2-7.4,3.7-11.1,5-4.5,1.2-9.3,1.9-14,2.2-5.9,0-11.9-.7-17.7-1.9-2.8-.8-5.4-1.5-7.7-2.4,12.2-11.9,21.4-27,26.5-43.8Z"/>
      <g>
        <path class="st0" d="M561.8,607.2h0c.1,0,.2,0,.4,0-.1,0-.3,0-.4,0ZM663.6,521.4c0,.2,0,.5,0,.7h0c0-.2,0-.5,0-.7ZM561.8,607.2h0c.1,0,.2,0,.4,0-.1,0-.3,0-.4,0Z"/>
        <path class="st0" d="M585.7,609.9h0s.3,0,.3,0c-.2,0-.3,0-.3,0ZM586.4,605.4c-.2,0-.4,0-.5.1.2,0,.3,0,.5,0,.4,0,.7-.1,1.1-.2-.3,0-.7.1-1.1.2ZM536.2,603.4c-.3,0-.6-.2-.9-.3-.2,0-.4,0-.5-.2.2,0,.4.1.5.2.7.2,1.3.4,2,.6-.3-.1-.7-.2-1-.3ZM532.1,602.1c.2.1.5.2.7.3h0c-.2-.1-.5-.2-.7-.3ZM528.6,600.9c-4.9-1.8-9.6-4-14.1-6.6-.2,0-.3-.2-.5-.3.2.1.3.2.5.3,4.5,2.6,9.3,4.8,14.1,6.6.2,0,.4.2.6.2-.2,0-.4-.2-.6-.2ZM508.4,590.5h0c.1.1.3.2.4.3-.1,0-.3-.2-.4-.3ZM585.7,609.9h0s.3,0,.3,0c-.2,0-.3,0-.3,0ZM586.4,605.4c-.2,0-.4,0-.5.1.2,0,.3,0,.5,0,.4,0,.7-.1,1.1-.2-.3,0-.7.1-1.1.2ZM595.4,439.8c-.5-.9-1-1.8-1.5-2.7-.4-.7-.9-1.3-1.3-2,0-.2-.2-.3-.3-.4-.6-.2-1.2-.3-1.7-.4,0,0-.1,0-.2,0-2-.6-4-1-5.9-1.5,0,0,.2.2.3.3.2.2.4.4.7.7,0,0,0,0,0,0-.8.7-1.7,1.4-2.5,2.1-.3.3-.7.5-1,.8,1.9.4,3.9.8,5.8,1.3h0c.4,0,.8.2,1.2.3h0c.9.2,1.8.5,2.7.7,1.3.4,2.6.8,3.9,1.2h0c0-.2-.2-.4-.3-.5ZM540.4,430.7c-.3.8-.7,1.5-1,2.3-.2.5-.4,1-.6,1.6-.1.3-.2.5-.3.8h0c1.7-.3,3.5-.5,5.3-.7.6-1.6,1.3-3.1,2.3-4.6-2,.2-3.9.4-5.8.6ZM585.7,609.9h0s.3,0,.3,0c-.2,0-.3,0-.3,0ZM586.4,605.4c-.2,0-.4,0-.5.1.2,0,.3,0,.5,0,.4,0,.7-.1,1.1-.2-.3,0-.7.1-1.1.2ZM585.7,609.9h0s.3,0,.3,0c-.2,0-.3,0-.3,0ZM586.4,605.4c-.2,0-.4,0-.5.1.2,0,.3,0,.5,0,.4,0,.7-.1,1.1-.2-.3,0-.7.1-1.1.2ZM584.8,610c-.6,0-1.2.2-1.8.3.6,0,1.2-.2,1.8-.2l.8-.2h-.8ZM585.7,609.9h0s.3,0,.3,0c-.2,0-.3,0-.3,0Z"/>
        <path class="st1" d="M574.4,488c.5,3.3-1.7,6.5-5.1,7s-6.5-1.7-7-5.1,1.8-6.5,5.1-7c3.3-.5,6.5,1.8,7,5.1Z"/>
        <path class="st1" d="M609.6,482.4c.5,3.3-1.7,6.5-5.1,7-3.3.5-6.5-1.7-7-5.1-.5-3.3,1.8-6.5,5.1-7s6.5,1.8,7,5.1Z"/>
        <path class="st1" d="M638.1,501.2c-5.5,7.3-19.3,22.4-42.3,26.7-.7.1-1.4.3-2.1.4-23.8,3.8-42.3-6.3-50-11.6-.7-.4-1.1-1.1-1.2-1.9s0-1.5.6-2.2c.9-1.2,2.6-1.5,3.8-.6,7.3,5,24.9,14.8,47.8,10.3,21.1-4,33.8-17.9,38.9-24.6.9-1.2,2.6-1.5,3.8-.7h0c1.3.9,1.7,2.7.7,4Z"/>
        <path class="st1" d="M476.1,646.4c-1,0-2,.2-3,.2-.9,0-1.8,0-2.6,0-5.2-.2-10.4-.8-15.4-2-4.2-1.1-8.1-2.6-11.6-4.1-1.2-.6-2.4-1.1-3.6-1.7l-1,1.9.8-2.1c-2.3-1.4-4.3-2.6-6.3-4-1.9-1.4-3.8-2.9-5.6-4.5l-.4-.3c-.9-1-1.8-1.9-2.8-2.9-2.7-2.9-5.2-6.1-7.6-9.6-.4-.5-.7-1-1.1-1.6-.5-.8-.9-1.5-1.3-2.3-1.5.3-3.1.5-4.7.5.7,1.4,1.5,2.7,2.3,4.1,0,0,0,0,0,.1,2.9,4.4,5.9,8.2,9.1,11.7,1,1.1,2,2.1,3,3.1l.5.4c1.9,1.7,3.9,3.2,5.9,4.7,2.1,1.5,4.2,2.8,6.6,4.2l.5.3c1.2.7,2.5,1.2,3.8,1.8,3.8,1.7,7.9,3.2,12.4,4.4,6.3,1.4,12.7,2.1,19.2,2.2.4,0,.7,0,1.1,0,1.8-.1,3.6-.3,5.4-.5-1.2-1.3-2.4-2.6-3.6-3.9ZM534.7,603c.2,0,.4.1.5.2h0c-.2,0-.4-.1-.5-.2ZM532.1,602.1c.2.1.5.2.7.3h0c-.2-.1-.5-.2-.7-.3ZM531.5,606.5c-.3,0-.5-.2-.8-.2.3,0,.5.2.8.3,0,0,.1,0,.2,0h0s-.1,0-.2,0ZM529.9,605.9c0,0-.2,0-.2,0,0,0,.2,0,.2,0,.1,0,.3,0,.4.1-.1,0-.2,0-.4-.1ZM510.1,637.1c-.6-.5-1.2-1-1.8-1.5l-.2-.2c-.3-.2-.5-.5-.7-.7-1.2.9-2.4,1.7-3.6,2.6.4.5.9.9,1.4,1.3l.2.2c.5.5,1.1,1,1.7,1.5,1.2-.8,2.5-1.7,3.6-2.6-.2-.2-.4-.3-.6-.5ZM470.5,646.6c-5.2-.2-10.4-.8-15.4-2-4.2-1.1-8.1-2.6-11.6-4.1-1.2-.6-2.4-1.1-3.6-1.7l-1,1.9.8-2.1c-2.3-1.4-4.3-2.6-6.3-4-1.9-1.4-3.8-2.9-5.6-4.5l-.4-.3c-.9-1-1.8-1.9-2.8-2.9-2.7-2.9-5.2-6.1-7.6-9.6-.3,0-.7.2-1,.3-1.2.3-2.5.5-3.7.6,2.9,4.4,5.9,8.2,9.1,11.7,1,1.1,2,2.1,3,3.1l.5.4c1.9,1.7,3.9,3.2,5.9,4.7,2.1,1.5,4.2,2.8,6.6,4.2l.5.3c1.2.7,2.5,1.2,3.8,1.8,3.8,1.7,7.9,3.2,12.4,4.4,6.3,1.4,12.7,2.1,19.2,2.2.4,0,.7,0,1.1,0-1.3-1.4-2.6-2.8-3.8-4.3ZM470.5,646.6c-5.2-.2-10.4-.8-15.4-2-4.2-1.1-8.1-2.6-11.6-4.1-1.2-.6-2.4-1.1-3.6-1.7l-1,1.9.8-2.1c-2.3-1.4-4.3-2.6-6.3-4-1.9-1.4-3.8-2.9-5.6-4.5l-.4-.3c-.9-1-1.8-1.9-2.8-2.9-2.7-2.9-5.2-6.1-7.6-9.6-.3,0-.7.2-1,.3-1.2.3-2.5.5-3.7.6,2.9,4.4,5.9,8.2,9.1,11.7,1,1.1,2,2.1,3,3.1l.5.4c1.9,1.7,3.9,3.2,5.9,4.7,2.1,1.5,4.2,2.8,6.6,4.2l.5.3c1.2.7,2.5,1.2,3.8,1.8,3.8,1.7,7.9,3.2,12.4,4.4,6.3,1.4,12.7,2.1,19.2,2.2.4,0,.7,0,1.1,0-1.3-1.4-2.6-2.8-3.8-4.3ZM470.5,646.6c-5.2-.2-10.4-.8-15.4-2-4.2-1.1-8.1-2.6-11.6-4.1-1.2-.6-2.4-1.1-3.6-1.7l-1,1.9.8-2.1c-2.3-1.4-4.3-2.6-6.3-4-1.9-1.4-3.8-2.9-5.6-4.5l-.4-.3c-.9-1-1.8-1.9-2.8-2.9-2.7-2.9-5.2-6.1-7.6-9.6-.3,0-.7.2-1,.3-1.2.3-2.5.5-3.7.6,2.9,4.4,5.9,8.2,9.1,11.7,1,1.1,2,2.1,3,3.1l.5.4c1.9,1.7,3.9,3.2,5.9,4.7,2.1,1.5,4.2,2.8,6.6,4.2l.5.3c1.2.7,2.5,1.2,3.8,1.8,3.8,1.7,7.9,3.2,12.4,4.4,6.3,1.4,12.7,2.1,19.2,2.2.4,0,.7,0,1.1,0-1.3-1.4-2.6-2.8-3.8-4.3ZM470.5,646.6c-5.2-.2-10.4-.8-15.4-2-4.2-1.1-8.1-2.6-11.6-4.1-1.2-.6-2.4-1.1-3.6-1.7l-1,1.9.8-2.1c-2.3-1.4-4.3-2.6-6.3-4-1.9-1.4-3.8-2.9-5.6-4.5l-.4-.3c-.9-1-1.8-1.9-2.8-2.9-2.7-2.9-5.2-6.1-7.6-9.6-.3,0-.7.2-1,.3-1.2.3-2.5.5-3.7.6,2.9,4.4,5.9,8.2,9.1,11.7,1,1.1,2,2.1,3,3.1l.5.4c1.9,1.7,3.9,3.2,5.9,4.7,2.1,1.5,4.2,2.8,6.6,4.2l.5.3c1.2.7,2.5,1.2,3.8,1.8,3.8,1.7,7.9,3.2,12.4,4.4,6.3,1.4,12.7,2.1,19.2,2.2.4,0,.7,0,1.1,0-1.3-1.4-2.6-2.8-3.8-4.3ZM470.5,646.6c-5.2-.2-10.4-.8-15.4-2-4.2-1.1-8.1-2.6-11.6-4.1-1.2-.6-2.4-1.1-3.6-1.7l-1,1.9.8-2.1c-2.3-1.4-4.3-2.6-6.3-4-1.9-1.4-3.8-2.9-5.6-4.5l-.4-.3c-.9-1-1.8-1.9-2.8-2.9-2.7-2.9-5.2-6.1-7.6-9.6-.3,0-.7.2-1,.3-1.2.3-2.5.5-3.7.6,2.9,4.4,5.9,8.2,9.1,11.7,1,1.1,2,2.1,3,3.1l.5.4c1.9,1.7,3.9,3.2,5.9,4.7,2.1,1.5,4.2,2.8,6.6,4.2l.5.3c1.2.7,2.5,1.2,3.8,1.8,3.8,1.7,7.9,3.2,12.4,4.4,6.3,1.4,12.7,2.1,19.2,2.2.4,0,.7,0,1.1,0-1.3-1.4-2.6-2.8-3.8-4.3ZM506,672.3c-1.7.7-3.3,1.3-5.1,1.8-10.6,3.5-21.9,5.2-33.5,4.9-20.7-.5-41.5-8.3-57.3-21.3-16.1-13.3-28.3-32.2-35.2-54.7-3.5-11.4-6-22.3-7.6-33.5-.5-3.9-.9-7.9-1.3-11.8-.3-2.8-.5-5.7-.9-8.5l-.4-3.1-2.8,1.5c-8.8,4.6-21.7,4.3-29.4-5.2-5.1-6.2-6.7-14.6-4.4-22.9,2.3-8.4,8.2-15,15.8-17.8,8.1-3,16.9-2.8,24,.5,7.3,3.4,13,8.8,17.8,16.9,5.6,9.4,6.6,20.7,7.7,31.6.3,2.7.5,5.5.8,8.1.6,4.7,1.2,9.2,2,13.5.3,1.6.6,3.2.9,4.7,1.2-1,2.5-1.9,3.9-2.7-.3-1.5-.6-3-.8-4.5-.6-3.7-1.2-7.6-1.7-11.6-.3-2.6-.6-5.3-.8-8-1.1-11.4-2.2-23.2-8.3-33.4-5.3-8.9-11.6-14.8-19.7-18.6-8.2-3.8-18.1-4-27.3-.6-8.9,3.3-15.8,11-18.5,20.8-2.6,9.5-.7,19.6,5.2,26.8,8.4,10.3,21.8,11.6,32,7.6.2,1.8.3,3.6.5,5.4.4,3.9.8,8,1.3,12,1.7,11.4,4.2,22.6,7.7,34.1,7.2,23.3,19.8,43,36.6,56.8,16.4,13.6,38.3,21.7,59.9,22.3,6.5.2,12.9-.3,19.2-1.2,6.5-1,12.9-2.7,19-5,1.7-.6,3.4-1.3,5-2-1.5-.9-3-1.8-4.5-2.8ZM424.4,633l.5.4c1.9,1.7,3.9,3.2,5.9,4.7,2.1,1.5,4.2,2.8,6.6,4.2l.5.3c1.2.7,2.5,1.2,3.8,1.8,3.8,1.7,7.9,3.2,12.4,4.4,6.3,1.4,12.7,2.1,19.2,2.2.4,0,.7,0,1.1,0-1.3-1.4-2.6-2.8-3.8-4.3-5.2-.2-10.4-.8-15.4-2-4.2-1.1-8.1-2.6-11.6-4.1-1.2-.6-2.4-1.1-3.6-1.7l-1,1.9.8-2.1c-2.3-1.4-4.3-2.6-6.3-4-1.9-1.4-3.8-2.9-5.6-4.5l-.4-.3c-.9-1-1.8-1.9-2.8-2.9-2.7-2.9-5.2-6.1-7.6-9.6-.3,0-.7.2-1,.3-1.2.3-2.5.5-3.7.6,2.9,4.4,5.9,8.2,9.1,11.7,1,1.1,2,2.1,3,3.1ZM470.5,646.6c-5.2-.2-10.4-.8-15.4-2-4.2-1.1-8.1-2.6-11.6-4.1-1.2-.6-2.4-1.1-3.6-1.7l-1,1.9.8-2.1c-2.3-1.4-4.3-2.6-6.3-4-1.9-1.4-3.8-2.9-5.6-4.5l-.4-.3c-.9-1-1.8-1.9-2.8-2.9-2.7-2.9-5.2-6.1-7.6-9.6-.3,0-.7.2-1,.3-1.2.3-2.5.5-3.7.6,2.9,4.4,5.9,8.2,9.1,11.7,1,1.1,2,2.1,3,3.1l.5.4c1.9,1.7,3.9,3.2,5.9,4.7,2.1,1.5,4.2,2.8,6.6,4.2l.5.3c1.2.7,2.5,1.2,3.8,1.8,3.8,1.7,7.9,3.2,12.4,4.4,6.3,1.4,12.7,2.1,19.2,2.2.4,0,.7,0,1.1,0-1.3-1.4-2.6-2.8-3.8-4.3ZM470.5,646.6c-5.2-.2-10.4-.8-15.4-2-4.2-1.1-8.1-2.6-11.6-4.1-1.2-.6-2.4-1.1-3.6-1.7l-1,1.9.8-2.1c-2.3-1.4-4.3-2.6-6.3-4-1.9-1.4-3.8-2.9-5.6-4.5l-.4-.3c-.9-1-1.8-1.9-2.8-2.9-2.7-2.9-5.2-6.1-7.6-9.6-.3,0-.7.2-1,.3-1.2.3-2.5.5-3.7.6,2.9,4.4,5.9,8.2,9.1,11.7,1,1.1,2,2.1,3,3.1l.5.4c1.9,1.7,3.9,3.2,5.9,4.7,2.1,1.5,4.2,2.8,6.6,4.2l.5.3c1.2.7,2.5,1.2,3.8,1.8,3.8,1.7,7.9,3.2,12.4,4.4,6.3,1.4,12.7,2.1,19.2,2.2.4,0,.7,0,1.1,0-1.3-1.4-2.6-2.8-3.8-4.3ZM470.5,646.6c-5.2-.2-10.4-.8-15.4-2-4.2-1.1-8.1-2.6-11.6-4.1-1.2-.6-2.4-1.1-3.6-1.7l-1,1.9.8-2.1c-2.3-1.4-4.3-2.6-6.3-4-1.9-1.4-3.8-2.9-5.6-4.5l-.4-.3c-.9-1-1.8-1.9-2.8-2.9-2.7-2.9-5.2-6.1-7.6-9.6-.3,0-.7.2-1,.3-1.2.3-2.5.5-3.7.6,2.9,4.4,5.9,8.2,9.1,11.7,1,1.1,2,2.1,3,3.1l.5.4c1.9,1.7,3.9,3.2,5.9,4.7,2.1,1.5,4.2,2.8,6.6,4.2l.5.3c1.2.7,2.5,1.2,3.8,1.8,3.8,1.7,7.9,3.2,12.4,4.4,6.3,1.4,12.7,2.1,19.2,2.2.4,0,.7,0,1.1,0-1.3-1.4-2.6-2.8-3.8-4.3ZM470.5,646.6c-5.2-.2-10.4-.8-15.4-2-4.2-1.1-8.1-2.6-11.6-4.1-1.2-.6-2.4-1.1-3.6-1.7l-1,1.9.8-2.1c-2.3-1.4-4.3-2.6-6.3-4-1.9-1.4-3.8-2.9-5.6-4.5l-.4-.3c-.9-1-1.8-1.9-2.8-2.9-2.7-2.9-5.2-6.1-7.6-9.6-.3,0-.7.2-1,.3-1.2.3-2.5.5-3.7.6,2.9,4.4,5.9,8.2,9.1,11.7,1,1.1,2,2.1,3,3.1l.5.4c1.9,1.7,3.9,3.2,5.9,4.7,2.1,1.5,4.2,2.8,6.6,4.2l.5.3c1.2.7,2.5,1.2,3.8,1.8,3.8,1.7,7.9,3.2,12.4,4.4,6.3,1.4,12.7,2.1,19.2,2.2.4,0,.7,0,1.1,0-1.3-1.4-2.6-2.8-3.8-4.3ZM537.7,654.5c-.7-.3-1.5-.6-2.2-.9-1.2,1.1-2.3,2.2-3.6,3.2,1.4.6,2.8,1.2,4.2,1.8.1,0,.2,0,.3.1,1.2-1.1,2.4-2.2,3.6-3.3-.8-.3-1.5-.6-2.3-.9ZM566.2,607.3c-.2,0-.4,0-.6,0s-.2,0-.3,0c-.5,0-.9,0-1.4,0-.2,0-.3,0-.5,0,0,0-.1,0-.2,0h0c0,0,.1,0,.2,0,.2,0,.4,0,.5,0,.5,0,.9,0,1.4,0s.2,0,.3,0c.2,0,.4,0,.6,0,.5,0,1.1,0,1.6,0-.5,0-1.1,0-1.6,0ZM470.5,646.6c-5.2-.2-10.4-.8-15.4-2-4.2-1.1-8.1-2.6-11.6-4.1-1.2-.6-2.4-1.1-3.6-1.7l-1,1.9.8-2.1c-2.3-1.4-4.3-2.6-6.3-4-1.9-1.4-3.8-2.9-5.6-4.5l-.4-.3c-.9-1-1.8-1.9-2.8-2.9-2.7-2.9-5.2-6.1-7.6-9.6-.4-.5-.7-1-1.1-1.6-.5-.8-.9-1.5-1.3-2.3-1.5.3-3.1.5-4.7.5.7,1.4,1.5,2.7,2.3,4.1,0,0,0,0,0,.1,2.9,4.4,5.9,8.2,9.1,11.7,1,1.1,2,2.1,3,3.1l.5.4c1.9,1.7,3.9,3.2,5.9,4.7,2.1,1.5,4.2,2.8,6.6,4.2l.5.3c1.2.7,2.5,1.2,3.8,1.8,3.8,1.7,7.9,3.2,12.4,4.4,6.3,1.4,12.7,2.1,19.2,2.2.4,0,.7,0,1.1,0-1.3-1.4-2.6-2.8-3.8-4.3Z"/>
        <g>
          <path class="st0" d="M618.5,595.1c-.2,0-.3.2-.5.3-.7.3-1.4.7-2.1,1,.9-.4,1.7-.8,2.6-1.3Z"/>
          <path class="st0" d="M621.3,598.6l-.8.3h-.2c0,0,.2,0,.3,0,.2-.1.4-.2.7-.3h0s0,0,0,0Z"/>
        </g>
        <g>
          <path class="st1" d="M590.3,432c-.9-1.1-1.9-2.2-2.9-3.2-1.6-1.6-3.4-3.1-5.3-4.5-.5-.4-1-.7-1.5-1-1.5-1-3.1-1.9-4.8-2.8-1.6-.9-3.3-1.6-5.2-2.3h0c-.7-.2-1.5-.5-2.3-.7-1.2-.3-2.4-.5-3.6-.7-.8,0-1.6-.2-2.4-.2-4.9-.2-10,1-14.3,4.3-.7.6-1.4,1.2-2,1.8-.6.7-1.2,1.3-1.8,2-.3.4-.7.8-1,1.2-.3.4-.6.8-.9,1.3-.5.8-1,1.7-1.4,2.5-.2.3-.3.6-.5,1-.3.8-.7,1.5-1,2.3-.2.5-.4,1-.6,1.6,0,.3-.2.5-.3.8-.2.7-.5,1.5-.7,2.1,1.8-.4,3.6-.8,5.4-1.2.2-.6.4-1.1.6-1.7.6-1.6,1.3-3.1,2.3-4.6.1-.3.3-.5.5-.8.5-.8,1.1-1.7,1.8-2.4.7-.8,1.5-1.6,2.4-2.3.1,0,.2-.2.3-.2,6.8-5,16.1-3.2,22.4.2,1.2.6,2.3,1.3,3.4,2h0c1.6,1,3.1,2.1,4.6,3.3,0,0,0,0,0,0,1.1.9,2.1,1.9,3,2.9,0,0,.2.2.3.3.2.2.4.4.7.7,1.1.1,2.2.2,3.3.4,0,0,0,0,0,0,.5,0,1.1.1,1.7.2,0,0,.1,0,.2,0,.5,0,1,.1,1.5.2h0c-.6-.9-1.2-1.7-1.9-2.5ZM590.3,432c-.9-1.1-1.9-2.2-2.9-3.2-1.6-1.6-3.4-3.1-5.3-4.5-.5-.4-1-.7-1.5-1-1.5-1-3.1-1.9-4.8-2.8-1.6-.9-3.3-1.6-5.2-2.3h0c-.7-.2-1.5-.5-2.3-.7-1.2-.3-2.4-.5-3.6-.7-.8,0-1.6-.2-2.4-.2-4.9-.2-10,1-14.3,4.3-.7.6-1.4,1.2-2,1.8-.6.7-1.2,1.3-1.8,2-.3.4-.7.8-1,1.2-.3.4-.6.8-.9,1.3-.5.8-1,1.7-1.4,2.5-.2.3-.3.6-.5,1-.3.8-.7,1.5-1,2.3-.2.5-.4,1-.6,1.6,0,.3-.2.5-.3.8-.2.7-.5,1.5-.7,2.1,1.8-.4,3.6-.8,5.4-1.2.2-.6.4-1.1.6-1.7.6-1.6,1.3-3.1,2.3-4.6.1-.3.3-.5.5-.8.5-.8,1.1-1.7,1.8-2.4.7-.8,1.5-1.6,2.4-2.3.1,0,.2-.2.3-.2,6.8-5,16.1-3.2,22.4.2,1.2.6,2.3,1.3,3.4,2h0c1.6,1,3.1,2.1,4.6,3.3,0,0,0,0,0,0,1.1.9,2.1,1.9,3,2.9,0,0,.2.2.3.3.2.2.4.4.7.7,1.1.1,2.2.2,3.3.4,0,0,0,0,0,0,.5,0,1.1.1,1.7.2,0,0,.1,0,.2,0,.5,0,1,.1,1.5.2h0c-.6-.9-1.2-1.7-1.9-2.5ZM582,424.3c-.5-.4-1-.7-1.5-1-1.5-1-3.1-1.9-4.8-2.8-1.6-.9-3.3-1.6-5.2-2.3h0c-.7-.2-1.5-.5-2.3-.7-1.2-.3-2.4-.5-3.6-.7-.8,0-1.6-.2-2.4-.2-4.9-.2-10,1-14.3,4.3-.7.6-1.4,1.2-2,1.8-.6.7-1.2,1.3-1.8,2,2.3-.2,4.6-.3,7-.3,6.8-5,16.1-3.2,22.4.2,1.2.6,2.3,1.3,3.4,2h0c3.4.6,6.9,1.3,10.4,2.3-1.6-1.6-3.4-3.1-5.3-4.5ZM616.8,445.5l-.2-.6h0s-.3-.9-.3-.9c-.1-.4-.2-.8-.4-1.1,0-.3-.2-.5-.2-.7-.3-.7-.5-1.5-.8-2.2-.2-.4-.3-.8-.5-1.2-14.6-35.5-51.2-57.4-85.7-50.4l-.8.2c-18.1,3.9-34.3,15.6-44.7,31.4-4.6,6.9-8,14.5-10.1,22.7-.5,2.1-1,4.3-1.3,6.4-8.1-2.7-14-4.3-20.8-5.3-3.6-.5-7.5-.9-12.2-1.3-5.8-.4-10.6,0-14.6,1.6-3.8,1.4-7,4.3-8.4,7.6-1.2,2.8-1.2,5.8,0,8.6,3,7.2,10.2,11.6,17.5,15.2,7.9,3.9,16.7,5.6,23.7,6.6.4,0,.8,0,1.2.2.5,0,1.1.1,1.7.2.8.1,1.5.2,2.3.2.8,0,1.7.2,2.5.2.5,0,1,0,1.4,0,1,0,1.9.1,2.8.2.8,0,1.7,0,2.5.1.1,0,.2,0,.3,0h.2c.8,0,1.7,0,2.5.1h1.4c0,0,4.9.3,4.9.3,4.2.2,8.3.3,12.5.3,11.4,0,22.8-1,34-2.7,4.1-.7,8.2-1.4,12.3-2.3,24.6-5.4,48.3-15,70.1-28.6l3.8-2.4h.2c0-.1,3.3-2.2,3.3-2.2h0c0,0,0-.3,0-.3ZM522.5,395c.4-.1.8-.3,1.2-.4.4-.1.8-.3,1.2-.4.5-.1,1-.3,1.4-.4.3,0,.7-.2,1-.3.1,0,.2,0,.3,0h.1c.3-.1.7-.2,1-.2l.8-.2c.1,0,.2,0,.4,0h0s0,0,.1,0h0c0,0,.1,0,.2,0,0,0,.1,0,.2,0h0c.1,0,.2,0,.3,0,1-.2,2-.3,3-.5,0,0,.1,0,.2,0,.3,0,.6,0,.9-.1.3,0,.7,0,1-.1.5,0,1.1-.1,1.6-.1,0,0,.2,0,.2,0,.6,0,1.3,0,1.9,0,.2,0,.3,0,.4,0,.5,0,1.1,0,1.7,0s1.5,0,2.3,0h.4c.2,0,.3,0,.5,0,.2,0,.4,0,.7,0,.3,0,.6,0,.8,0,.3,0,.6,0,.8,0,0,0,.2,0,.2,0h0c.6,0,1.2.1,1.8.2.2,0,.4,0,.7,0,0,0,.1,0,.2,0,.6,0,1.2.2,1.8.3.2,0,.4,0,.6.1h0s0,0,0,.2c0,0,0,.1,0,.2,0,.3-.1.5-.2.7,0,.1,0,.3-.1.4,0,0,0,.1,0,.2s0,0,0,.2h0s0,0,0,0c0,.1,0,.2,0,.3,0,.1,0,.2-.1.3h0c0,.1,0,.2,0,.3,0,0,0,0,0,0,0,.2-.1.3-.2.5,0,.2-.1.3-.2.5,0,0,0,.1,0,.2,0,0,0,0,0,.1-.1.3-.3.5-.4.8,0,.1-.2.3-.2.4,0,.1-.2.3-.3.4-.3.4-.7.8-1.1,1.2-.1.1-.3.3-.4.4-.2.2-.3.3-.5.4,0,0-.2.2-.3.2h0s0,0,0,0c-.1.1-.2.2-.3.3-.2.1-.3.2-.5.3-.3.2-.6.4-.9.6h0c-.2.1-.3.2-.5.3,0,0,0,0,0,0-.1,0-.2.1-.3.2,0,0,0,0-.1,0h0c-.1,0-.2.2-.3.2-.2,0-.3.2-.5.2-.3.1-.7.3-1,.4h0c-.3.1-.7.2-1,.3-.3.1-.6.2-.9.3h0c0,0-.2,0-.3,0h0s0,0,0,0c-.4,0-.8.2-1.2.2-.1,0-.2,0-.3,0h-.2c-.5.1-.9.2-1.4.2-.4,0-.9,0-1.3,0-.2,0-.3,0-.5,0-.1,0-.2,0-.4,0s0,0,0,0c0,0-.2,0-.3,0h-.2s0,0,0,0c-.4,0-.8,0-1.2,0,0,0-.2,0-.2,0,0,0-.2,0-.2,0h0s0,0-.1,0h-.1s0,0-.1,0h0s0,0,0,0h0c-.2,0-.4,0-.6-.1-.2,0-.4,0-.6-.1-.2,0-.3,0-.4,0,0,0-.1,0-.2,0,0,0-.1,0-.2,0-.2,0-.3,0-.5-.2-.3,0-.5-.2-.8-.3,0,0-.2,0-.2,0-.3-.1-.7-.3-1-.4h0c-.4-.2-.8-.4-1.2-.6-.4-.2-.7-.4-1-.7t0,0c-.3-.2-.5-.4-.7-.6,0,0,0,0-.1-.1,0,0-.1,0-.1-.1h0s0,0,0,0c-.3-.3-.6-.6-.9-.8h0c-.1-.1-.2-.2-.2-.2,0,0,0,0-.1-.1,0,0,0,0-.1-.1s0,0,0,0h0s0,0,0,0c-.3-.3-.5-.5-.7-.9t0,0c0,0-.1-.2-.2-.2,0,0-.2-.2-.2-.3-.1-.2-.2-.4-.4-.6,0-.1-.2-.3-.3-.4,0,0,0-.1,0-.2,0,0-.1-.2-.2-.3-.2-.3-.3-.6-.5-.9.4-.1.7-.2,1.1-.4ZM473.1,478.6h0s0,0,0,0c-.1,0-.3,0-.4,0-.2,0-.3,0-.5,0-.7,0-1.4,0-2.2,0s-1.4,0-2.2-.1c-.5,0-1,0-1.4,0-.3,0-.6,0-.9,0-.2,0-.4,0-.5,0-.1,0-.3,0-.4,0-.6,0-1.3-.1-1.9-.2-.2,0-.3,0-.5,0-.4,0-.9,0-1.3-.2-.7,0-1.3-.1-2-.2-.4,0-.9-.1-1.3-.2-1.3-.2-2.7-.4-4.2-.7-.7-.1-1.5-.3-2.2-.4,0,0-.2,0-.3,0-.2,0-.3,0-.5,0-.3,0-.5-.1-.8-.2-.6-.1-1.1-.3-1.7-.4,0,0-.2,0-.3,0-.7-.2-1.5-.3-2.2-.6-.2,0-.5-.1-.7-.2-.4-.1-.8-.2-1.2-.3-.7-.2-1.5-.5-2.2-.7,0,0-.2,0-.2,0-.8-.3-1.7-.6-2.4-.9-.2,0-.3-.2-.5-.2-1-.4-1.8-.8-2.8-1.3-.4-.2-.8-.4-1.2-.6-1.2-.6-2.4-1.3-3.6-2,0,0-.2,0-.2-.1-.3-.2-.5-.3-.8-.5,0,0,0,0,0,0-1.5-1-3-2-4.3-3.1,0,0-.2-.1-.2-.2s-.2-.1-.2-.2c-.5-.4-.9-.8-1.3-1.2-.2-.2-.3-.3-.5-.5-.2-.2-.3-.4-.5-.6t0,0c0,0-.1-.2-.2-.2s0,0-.1-.1c0,0,0,0,0,0,0,0,0-.1,0-.1-.2-.3-.4-.6-.6-.9-.2-.3-.3-.5-.5-.8-.2-.2-.3-.5-.4-.8-.1-.2-.2-.5-.3-.8,0,0,0-.1,0-.2,0,0,0,0,0,0,0-.1,0-.3-.1-.4,0,0,0-.1,0-.2,0,0,0-.2,0-.3-.1-.5-.2-1-.2-1.4h0c0-.2,0-.2,0-.3,0,0,0-.2,0-.2t0,0c0-.2,0-.4,0-.7,0-.1,0-.2,0-.3,0,0,0-.2.1-.3,0-.2.1-.4.2-.6,0-.1.1-.2.2-.3,0,0,0,0,0,0,0,0,0,0,0,0,0-.1.1-.2.2-.3,0-.2.2-.3.3-.5.3-.5.7-.9,1.1-1.3.2-.2.3-.3.5-.5.3-.3.7-.6,1.1-.8.2-.1.3-.2.5-.3l.3-.2c.2-.1.3-.2.5-.3.3-.2.6-.3.9-.4.3-.1.5-.2.8-.3.2,0,.5-.2.7-.2.2,0,.5-.2.7-.2,0,0,.2,0,.3,0,.4,0,.8-.1,1.2-.2.2,0,.3,0,.5,0,.4,0,.7-.1,1.1-.2,0,0,.2,0,.3,0h0c.2,0,.4,0,.6,0,.2,0,.3,0,.5,0,.9,0,1.8-.1,2.8,0h.9c.2,0,.3,0,.5,0,.2,0,.3,0,.5,0,.4,0,.8,0,1.2,0,.4,0,.8,0,1.2,0,1.4,0,2.8.2,4,.3.6,0,1.1.1,1.7.2.7,0,1.3.1,2,.2.7,0,1.3.2,2,.3.5,0,1,.1,1.5.2.2,0,.5,0,.7.1,0,0,0,0,.1,0,.8.1,1.5.3,2.3.4.8.1,1.5.3,2.3.5.2,0,.4,0,.6.1,1,.2,2.1.5,3.1.8.2,0,.4.1.7.2.4.1.8.2,1.2.3.8.2,1.7.5,2.5.7.4.1.8.2,1.3.4.3.1.7.2,1.1.3.2,0,.3,0,.5.2.4.1.8.2,1.2.4.5.2.9.3,1.4.5.5.2,1,.3,1.4.5,0,1-.2,1.9-.2,2.9,0,1,0,1.9,0,2.9v1c0,0,0,.2,0,.3,0,0,0,.2,0,.3,0,0,0,0,0,.1,0,2.4.2,4.9.5,7.3,0,.4,0,.7.1,1.1,0,.2,0,.3,0,.5,0,.4.1.8.2,1.2v.7c.3,1.1.5,2.2.7,3.2.2.9.4,1.8.6,2.7,0,0,0,.2,0,.3,0,0,0,.2,0,.3h0ZM543.9,434.6c.6-1.6,1.3-3.1,2.3-4.6.1-.3.3-.5.5-.8.5-.8,1.1-1.7,1.8-2.4.7-.8,1.5-1.6,2.4-2.3.1,0,.2-.2.3-.2,6.8-5,16.1-3.2,22.4.2,1.2.6,2.3,1.3,3.4,2h0c1.6,1,3.1,2.1,4.6,3.3,0,0,0,0,0,0,1.1.9,2.1,1.9,3,2.9,0,0,.2.2.3.3.2.2.4.4.7.7,0,0,0,0,0,0-.8.7-1.7,1.4-2.5,2.1-.3.3-.7.5-1,.8-.6.5-1.2,1-1.8,1.4-11.9,9.3-22,13.3-39.8,12.7.2-2.3.5-4.8,1-7.5.1-.6.2-1.2.4-1.9.2-.8.4-1.7.7-2.6.2-.8.5-1.7.8-2.5.2-.6.4-1.1.6-1.7ZM591.3,455.3c-1.7.9-3.4,1.7-5.1,2.5h0c-1.4.7-2.8,1.3-4.1,1.9-3.3,1.5-6.6,2.9-10,4.3-1.7.7-3.3,1.3-5,1.9-.2,0-.4.1-.5.2-.2,0-.3.1-.5.2-.3.1-.7.3-1,.4-.6.2-1.2.4-1.8.6-.3,0-.5.2-.8.3-.8.3-1.7.6-2.6.9-.8.3-1.6.5-2.3.7-1.1.4-2.3.7-3.4,1-1.3.4-2.6.8-3.9,1.1s-2.6.7-3.9,1.1c-1.1.3-2.2.6-3.3.8,0,0,0,0-.1,0h0c0-.2-.1-.5-.2-.7,0-.2-.1-.5-.2-.7-.2-.6-.3-1.1-.5-1.7-.3-1.1-.5-2.2-.8-3.3,0-.2-.1-.5-.2-.7,0-.5-.2-.9-.2-1.4-.1-.8-.3-1.6-.3-2.4-.2-1.5-.3-3-.3-4.6,0-.4,0-.9,0-1.3v-.3c0-.2,0-.5,0-.7,2.6,0,5.1,0,7.4,0,.6,0,1.2,0,1.8,0,.6,0,1.2,0,1.7-.1.3,0,.5,0,.8,0h.2c2.3-.3,4.5-.6,6.6-1.1h0c.7-.2,1.4-.3,2.1-.5.2,0,.5-.2.7-.2.4-.1.9-.2,1.3-.3,1.3-.4,2.6-.8,3.9-1.3.4-.2.9-.3,1.3-.5,0,0,.2-.1.3-.2.4-.2.7-.3,1.1-.5.2,0,.3-.2.5-.3.3-.1.6-.3.9-.4.2,0,.4-.2.6-.3.3-.2.6-.3.9-.5.4-.2.8-.4,1.2-.7.5-.3,1.1-.6,1.7-1,.3-.1.5-.3.8-.5.6-.4,1.2-.8,1.8-1.2.2-.1.4-.3.5-.4h0c0,0,.1,0,.2-.1.3-.2.7-.5,1-.7s.3-.2.5-.3c.4-.3.9-.7,1.3-1,2.2-1.6,4.4-3.4,6.7-5.4h0c.2-.2.4-.3.6-.5.2.3.4.5.6.8h0s0,0,0,.1c.2.3.4.7.6,1,0,0,.1.2.2.2.9,1.5,1.8,3,2.5,4.7.2.4.4.8.5,1.2.3.7.6,1.3.8,2,.1.3.3.7.4,1,0,.1.1.2.2.4,0,.1,0,.2.1.4h0c.2.7.5,1.3.7,1.9.2.6.4,1.1.6,1.7-1.5.8-3,1.6-4.5,2.4ZM608.4,445.5l-1.3.8c-2.4,1.5-4.7,2.9-7.1,4.3h0c0-.2-.1-.3-.2-.5-.5-1.6-1.1-3.1-1.7-4.5-.2-.5-.4-.9-.6-1.3-.6-1.4-1.2-2.6-1.9-3.9h0c0-.2-.2-.4-.3-.5-.5-.9-1-1.8-1.5-2.7-.4-.7-.9-1.3-1.3-2,0-.2-.2-.3-.3-.4,0,0-.1-.2-.2-.3h0c-.6-.9-1.2-1.7-1.9-2.5-.9-1.1-1.9-2.2-2.9-3.2-1.6-1.6-3.4-3.1-5.3-4.5-.5-.4-1-.7-1.5-1-1.5-1-3.1-1.9-4.8-2.8-1.6-.9-3.3-1.6-5.2-2.3h0c-.7-.2-1.5-.5-2.3-.7-1.2-.3-2.4-.5-3.6-.7-.8,0-1.6-.2-2.4-.2-4.9-.2-10,1-14.3,4.3-.7.6-1.4,1.2-2,1.8-.6.7-1.2,1.3-1.8,2-.3.4-.7.8-1,1.2-.3.4-.6.8-.9,1.3-.5.8-1,1.7-1.4,2.5-.2.3-.3.6-.5,1-.3.8-.7,1.5-1,2.3-.2.5-.4,1-.6,1.6,0,.3-.2.5-.3.8-.2.7-.5,1.5-.7,2.1-.2.9-.5,1.7-.6,2.5-.2.8-.3,1.7-.5,2.5,0,0,0,0,0,0s0,0,0,0c-.6,3.2-1,6.2-1.2,9.1,0,1-.1,1.9-.1,2.9,0,1.8,0,3.7,0,5.5.3,4.8,1.2,9.4,2.7,14.3h0c-.7.2-1.3.3-2,.4-1.3.3-2.7.5-4,.8-1.9.4-3.8.7-5.7,1-1.5.2-3,.5-4.5.7-1.2.2-2.3.3-3.5.4-1.2.2-2.4.3-3.7.4-1.5.2-3,.3-4.5.4-.8,0-1.5.2-2.3.2-1.2.1-2.4.2-3.6.2-1,0-2,.1-3,.2-.3,0-.6,0-.8,0-1.2,0-2.4.1-3.6.1-5.3.1-10.7,0-16-.3l-3-.2h0c0-.1,0-.2,0-.3,0,0,0,0,0,0,0,0,0-.2,0-.3h0c-.2-.6-.3-1.1-.4-1.7-.2-1-.5-1.9-.6-2.8-.2-.8-.3-1.7-.4-2.5v-.4c-.5-2.9-.8-5.8-.8-8.7h0c0-.5,0-1.1,0-1.6s0-.5,0-.8c0-.3,0-.5,0-.8v-.7c0-1.3,0-2.6.2-3.9,0-.9.2-1.8.3-2.7,0-.7.2-1.3.3-2h0c0-.7.2-1.3.3-2,0-.2,0-.3.1-.5.2-1.1.5-2.2.8-3.4h0c.4-1.5.8-2.9,1.3-4.3.2-.7.5-1.4.7-2.1.3-.8.6-1.6.9-2.3.3-.6.5-1.2.8-1.9.3-.7.6-1.4.9-2,.7-1.3,1.3-2.7,2.1-4,.5-.8,1-1.7,1.4-2.5,1.5-2.5,3.1-4.8,4.9-7,.9-1.1,1.8-2.2,2.7-3.3,1-1.1,1.9-2.1,2.9-3.1.5-.5,1-1,1.5-1.5.5-.5,1-1,1.6-1.4.5-.5,1.1-.9,1.6-1.4,1.4-1.2,2.8-2.2,4.2-3.2.4-.3.9-.7,1.4-1,1-.7,2-1.3,3-1.9,1.6-1,3.3-1.9,4.9-2.7.8-.4,1.7-.8,2.5-1.2,2.1,4.5,5.3,7.9,9.6,10,4.5,2.2,10,2.7,15.3,1.5.5-.1,1.1-.3,1.6-.4.3,0,.5-.2.8-.2.3,0,.5-.2.8-.2,0,0,.1,0,.2-.1,0,0,.2,0,.2,0,.7-.3,1.5-.6,2.2-1,1.3-.6,2.4-1.4,3.5-2.3.6-.4,1.1-.9,1.6-1.4.2-.3.5-.5.7-.8.1-.1.2-.3.3-.4.1-.1.2-.3.3-.4h0c.9-1.2,1.4-2.3,1.9-3.4.1-.3.2-.6.3-.8h0c0-.1,0-.2.1-.3.1-.4.3-.8.3-1.1.1-.4.3-.7.3-1.1,0-.1,0-.2,0-.3,0-.1,0-.2,0-.3.9.2,1.7.4,2.6.7.9.2,1.7.5,2.6.8,18.9,6.3,35.6,20.8,45.2,40.3.4.8.8,1.6,1.2,2.4.1.3.3.6.4.9.3.6.5,1.3.8,1.9.1.2.2.5.3.8,0,.2.2.4.2.6h0c.1.3.2.5.3.8,0,.3.2.5.3.8,0,0,0,0,0,0,0,0,0,0,0,0h0s-2.6,1.6-2.6,1.6h-.2ZM582,424.3c-.5-.4-1-.7-1.5-1-1.5-1-3.1-1.9-4.8-2.8-1.6-.9-3.3-1.6-5.2-2.3h0c-.7-.2-1.5-.5-2.3-.7-1.2-.3-2.4-.5-3.6-.7-.8,0-1.6-.2-2.4-.2-4.9-.2-10,1-14.3,4.3-.7.6-1.4,1.2-2,1.8-.6.7-1.2,1.3-1.8,2,2.3-.2,4.6-.3,7-.3,6.8-5,16.1-3.2,22.4.2,1.2.6,2.3,1.3,3.4,2h0c3.4.6,6.9,1.3,10.4,2.3-1.6-1.6-3.4-3.1-5.3-4.5ZM582,424.3c-.5-.4-1-.7-1.5-1-1.5-1-3.1-1.9-4.8-2.8-1.6-.9-3.3-1.6-5.2-2.3h0c-.7-.2-1.5-.5-2.3-.7-1.2-.3-2.4-.5-3.6-.7-.8,0-1.6-.2-2.4-.2-4.9-.2-10,1-14.3,4.3-.7.6-1.4,1.2-2,1.8-.6.7-1.2,1.3-1.8,2,2.3-.2,4.6-.3,7-.3,6.8-5,16.1-3.2,22.4.2,1.2.6,2.3,1.3,3.4,2h0c3.4.6,6.9,1.3,10.4,2.3-1.6-1.6-3.4-3.1-5.3-4.5ZM590.3,432c-.9-1.1-1.9-2.2-2.9-3.2-1.6-1.6-3.4-3.1-5.3-4.5-.5-.4-1-.7-1.5-1-1.5-1-3.1-1.9-4.8-2.8-1.6-.9-3.3-1.6-5.2-2.3h0c-.7-.2-1.5-.5-2.3-.7-1.2-.3-2.4-.5-3.6-.7-.8,0-1.6-.2-2.4-.2-4.9-.2-10,1-14.3,4.3-.7.6-1.4,1.2-2,1.8-.6.7-1.2,1.3-1.8,2-.3.4-.7.8-1,1.2-.3.4-.6.8-.9,1.3-.5.8-1,1.7-1.4,2.5-.2.3-.3.6-.5,1-.3.8-.7,1.5-1,2.3-.2.5-.4,1-.6,1.6,0,.3-.2.5-.3.8-.2.7-.5,1.5-.7,2.1,1.8-.4,3.6-.8,5.4-1.2.2-.6.4-1.1.6-1.7.6-1.6,1.3-3.1,2.3-4.6.1-.3.3-.5.5-.8.5-.8,1.1-1.7,1.8-2.4.7-.8,1.5-1.6,2.4-2.3.1,0,.2-.2.3-.2,6.8-5,16.1-3.2,22.4.2,1.2.6,2.3,1.3,3.4,2h0c1.6,1,3.1,2.1,4.6,3.3,0,0,0,0,0,0,1.1.9,2.1,1.9,3,2.9,0,0,.2.2.3.3.2.2.4.4.7.7,1.1.1,2.2.2,3.3.4,0,0,0,0,0,0,.5,0,1.1.1,1.7.2,0,0,.1,0,.2,0,.5,0,1,.1,1.5.2h0c-.6-.9-1.2-1.7-1.9-2.5Z"/>
          <path class="st1" d="M521.4,395.3c1.6,3.4,4,5.9,7.2,7.5,4.3,2.1,9.7,2.2,14.9.4,2.7-1,5.1-2.7,6.8-4.9,1.2-1.5,1.7-3.2,2.2-5.2,0-.1,0-.2,0-.3-7.6-1.3-15.4-1.3-23.1.2l-.8.2c-2.5.5-5,1.3-7.4,2.1Z"/>
          <path class="st1" d="M590.3,432c-.9-1.1-1.9-2.2-2.9-3.2-1.6-1.6-3.4-3.1-5.3-4.5-.5-.4-1-.7-1.5-1-1.5-1-3.1-1.9-4.8-2.8-1.6-.9-3.3-1.6-5.2-2.3h0c-.7-.2-1.5-.5-2.3-.7-1.2-.3-2.4-.5-3.6-.7-.8,0-1.6-.2-2.4-.2-4.9-.2-10,1-14.3,4.3-.7.6-1.4,1.2-2,1.8-.6.7-1.2,1.3-1.8,2-.3.4-.7.8-1,1.2-.3.4-.6.8-.9,1.3-.5.8-1,1.7-1.4,2.5-.2.3-.3.6-.5,1-.3.8-.7,1.5-1,2.3-.2.5-.4,1-.6,1.6,0,.3-.2.5-.3.8-.2.7-.5,1.5-.7,2.1,1.8-.4,3.6-.8,5.4-1.2.2-.6.4-1.1.6-1.7.6-1.6,1.3-3.1,2.3-4.6.1-.3.3-.5.5-.8.5-.8,1.1-1.7,1.8-2.4.7-.8,1.5-1.6,2.4-2.3.1,0,.2-.2.3-.2,6.8-5,16.1-3.2,22.4.2,1.2.6,2.3,1.3,3.4,2h0c1.6,1,3.1,2.1,4.6,3.3,0,0,0,0,0,0,1.1.9,2.1,1.9,3,2.9,0,0,.2.2.3.3.2.2.4.4.7.7,1.1.1,2.2.2,3.3.4,0,0,0,0,0,0,.5,0,1.1.1,1.7.2,0,0,.1,0,.2,0,.5,0,1,.1,1.5.2h0c-.6-.9-1.2-1.7-1.9-2.5ZM590.3,432c-.9-1.1-1.9-2.2-2.9-3.2-1.6-1.6-3.4-3.1-5.3-4.5-.5-.4-1-.7-1.5-1-1.5-1-3.1-1.9-4.8-2.8-1.6-.9-3.3-1.6-5.2-2.3h0c-.7-.2-1.5-.5-2.3-.7-1.2-.3-2.4-.5-3.6-.7-.8,0-1.6-.2-2.4-.2-4.9-.2-10,1-14.3,4.3-.7.6-1.4,1.2-2,1.8-.6.7-1.2,1.3-1.8,2-.3.4-.7.8-1,1.2-.3.4-.6.8-.9,1.3-.5.8-1,1.7-1.4,2.5-.2.3-.3.6-.5,1-.3.8-.7,1.5-1,2.3-.2.5-.4,1-.6,1.6,0,.3-.2.5-.3.8-.2.7-.5,1.5-.7,2.1,1.8-.4,3.6-.8,5.4-1.2.2-.6.4-1.1.6-1.7.6-1.6,1.3-3.1,2.3-4.6.1-.3.3-.5.5-.8.5-.8,1.1-1.7,1.8-2.4.7-.8,1.5-1.6,2.4-2.3.1,0,.2-.2.3-.2,6.8-5,16.1-3.2,22.4.2,1.2.6,2.3,1.3,3.4,2h0c1.6,1,3.1,2.1,4.6,3.3,0,0,0,0,0,0,1.1.9,2.1,1.9,3,2.9,0,0,.2.2.3.3.2.2.4.4.7.7,1.1.1,2.2.2,3.3.4,0,0,0,0,0,0,.5,0,1.1.1,1.7.2,0,0,.1,0,.2,0,.5,0,1,.1,1.5.2h0c-.6-.9-1.2-1.7-1.9-2.5ZM582,424.3c-.5-.4-1-.7-1.5-1-1.5-1-3.1-1.9-4.8-2.8-1.6-.9-3.3-1.6-5.2-2.3h0c-.7-.2-1.5-.5-2.3-.7-1.2-.3-2.4-.5-3.6-.7-.8,0-1.6-.2-2.4-.2-4.9-.2-10,1-14.3,4.3-.7.6-1.4,1.2-2,1.8-.6.7-1.2,1.3-1.8,2,2.3-.2,4.6-.3,7-.3,6.8-5,16.1-3.2,22.4.2,1.2.6,2.3,1.3,3.4,2h0c3.4.6,6.9,1.3,10.4,2.3-1.6-1.6-3.4-3.1-5.3-4.5ZM616.8,445.5l-.2-.6h0s-.3-.9-.3-.9c-.1-.4-.2-.8-.4-1.1,0-.3-.2-.5-.2-.7-.3-.7-.5-1.5-.8-2.2-.2-.4-.3-.8-.5-1.2-14.6-35.5-51.2-57.4-85.7-50.4l-.8.2c-18.1,3.9-34.3,15.6-44.7,31.4-4.6,6.9-8,14.5-10.1,22.7-.5,2.1-1,4.3-1.3,6.4-8.1-2.7-14-4.3-20.8-5.3-3.6-.5-7.5-.9-12.2-1.3-5.8-.4-10.6,0-14.6,1.6-3.8,1.4-7,4.3-8.4,7.6-1.2,2.8-1.2,5.8,0,8.6,3,7.2,10.2,11.6,17.5,15.2,7.9,3.9,16.7,5.6,23.7,6.6.4,0,.8,0,1.2.2.5,0,1.1.1,1.7.2.8.1,1.5.2,2.3.2.8,0,1.7.2,2.5.2.5,0,1,0,1.4,0,1,0,1.9.1,2.8.2.8,0,1.7,0,2.5.1.1,0,.2,0,.3,0h.2c.8,0,1.7,0,2.5.1h1.4c0,0,4.9.3,4.9.3,4.2.2,8.3.3,12.5.3,11.4,0,22.8-1,34-2.7,4.1-.7,8.2-1.4,12.3-2.3,24.6-5.4,48.3-15,70.1-28.6l3.8-2.4h.2c0-.1,3.3-2.2,3.3-2.2h0c0,0,0-.3,0-.3ZM522.5,395c.4-.1.8-.3,1.2-.4.4-.1.8-.3,1.2-.4.5-.1,1-.3,1.4-.4.3,0,.7-.2,1-.3.1,0,.2,0,.3,0h.1c.3-.1.7-.2,1-.2l.8-.2c.1,0,.2,0,.4,0h0s0,0,.1,0h0c0,0,.1,0,.2,0,0,0,.1,0,.2,0h0c.1,0,.2,0,.3,0,1-.2,2-.3,3-.5,0,0,.1,0,.2,0,.3,0,.6,0,.9-.1.3,0,.7,0,1-.1.5,0,1.1-.1,1.6-.1,0,0,.2,0,.2,0,.6,0,1.3,0,1.9,0,.2,0,.3,0,.4,0,.5,0,1.1,0,1.7,0s1.5,0,2.3,0h.4c.2,0,.3,0,.5,0,.2,0,.4,0,.7,0,.3,0,.6,0,.8,0,.3,0,.6,0,.8,0,0,0,.2,0,.2,0h0c.6,0,1.2.1,1.8.2.2,0,.4,0,.7,0,0,0,.1,0,.2,0,.6,0,1.2.2,1.8.3.2,0,.4,0,.6.1h0s0,0,0,.2c0,0,0,.1,0,.2,0,.3-.1.5-.2.7,0,.1,0,.3-.1.4,0,0,0,.1,0,.2s0,0,0,.2h0s0,0,0,0c0,.1,0,.2,0,.3,0,.1,0,.2-.1.3h0c0,.1,0,.2,0,.3,0,0,0,0,0,0,0,.2-.1.3-.2.5,0,.2-.1.3-.2.5,0,0,0,.1,0,.2,0,0,0,0,0,.1-.1.3-.3.5-.4.8,0,.1-.2.3-.2.4,0,.1-.2.3-.3.4-.3.4-.7.8-1.1,1.2-.1.1-.3.3-.4.4-.2.2-.3.3-.5.4,0,0-.2.2-.3.2h0s0,0,0,0c-.1.1-.2.2-.3.3-.2.1-.3.2-.5.3-.3.2-.6.4-.9.6h0c-.2.1-.3.2-.5.3,0,0,0,0,0,0-.1,0-.2.1-.3.2,0,0,0,0-.1,0h0c-.1,0-.2.2-.3.2-.2,0-.3.2-.5.2-.3.1-.7.3-1,.4h0c-.3.1-.7.2-1,.3-.3.1-.6.2-.9.3h0c0,0-.2,0-.3,0h0s0,0,0,0c-.4,0-.8.2-1.2.2-.1,0-.2,0-.3,0h-.2c-.5.1-.9.2-1.4.2-.4,0-.9,0-1.3,0-.2,0-.3,0-.5,0-.1,0-.2,0-.4,0s0,0,0,0c0,0-.2,0-.3,0h-.2s0,0,0,0c-.4,0-.8,0-1.2,0,0,0-.2,0-.2,0,0,0-.2,0-.2,0h0s0,0-.1,0h-.1s0,0-.1,0h0s0,0,0,0h0c-.2,0-.4,0-.6-.1-.2,0-.4,0-.6-.1-.2,0-.3,0-.4,0,0,0-.1,0-.2,0,0,0-.1,0-.2,0-.2,0-.3,0-.5-.2-.3,0-.5-.2-.8-.3,0,0-.2,0-.2,0-.3-.1-.7-.3-1-.4h0c-.4-.2-.8-.4-1.2-.6-.4-.2-.7-.4-1-.7t0,0c-.3-.2-.5-.4-.7-.6,0,0,0,0-.1-.1,0,0-.1,0-.1-.1h0s0,0,0,0c-.3-.3-.6-.6-.9-.8h0c-.1-.1-.2-.2-.2-.2,0,0,0,0-.1-.1,0,0,0,0-.1-.1s0,0,0,0h0s0,0,0,0c-.3-.3-.5-.5-.7-.9t0,0c0,0-.1-.2-.2-.2,0,0-.2-.2-.2-.3-.1-.2-.2-.4-.4-.6,0-.1-.2-.3-.3-.4,0,0,0-.1,0-.2,0,0-.1-.2-.2-.3-.2-.3-.3-.6-.5-.9.4-.1.7-.2,1.1-.4ZM473.1,478.6h0s0,0,0,0c-.1,0-.3,0-.4,0-.2,0-.3,0-.5,0-.7,0-1.4,0-2.2,0s-1.4,0-2.2-.1c-.5,0-1,0-1.4,0-.3,0-.6,0-.9,0-.2,0-.4,0-.5,0-.1,0-.3,0-.4,0-.6,0-1.3-.1-1.9-.2-.2,0-.3,0-.5,0-.4,0-.9,0-1.3-.2-.7,0-1.3-.1-2-.2-.4,0-.9-.1-1.3-.2-1.3-.2-2.7-.4-4.2-.7-.7-.1-1.5-.3-2.2-.4,0,0-.2,0-.3,0-.2,0-.3,0-.5,0-.3,0-.5-.1-.8-.2-.6-.1-1.1-.3-1.7-.4,0,0-.2,0-.3,0-.7-.2-1.5-.3-2.2-.6-.2,0-.5-.1-.7-.2-.4-.1-.8-.2-1.2-.3-.7-.2-1.5-.5-2.2-.7,0,0-.2,0-.2,0-.8-.3-1.7-.6-2.4-.9-.2,0-.3-.2-.5-.2-1-.4-1.8-.8-2.8-1.3-.4-.2-.8-.4-1.2-.6-1.2-.6-2.4-1.3-3.6-2,0,0-.2,0-.2-.1-.3-.2-.5-.3-.8-.5,0,0,0,0,0,0-1.5-1-3-2-4.3-3.1,0,0-.2-.1-.2-.2s-.2-.1-.2-.2c-.5-.4-.9-.8-1.3-1.2-.2-.2-.3-.3-.5-.5-.2-.2-.3-.4-.5-.6t0,0c0,0-.1-.2-.2-.2s0,0-.1-.1c0,0,0,0,0,0,0,0,0-.1,0-.1-.2-.3-.4-.6-.6-.9-.2-.3-.3-.5-.5-.8-.2-.2-.3-.5-.4-.8-.1-.2-.2-.5-.3-.8,0,0,0-.1,0-.2,0,0,0,0,0,0,0-.1,0-.3-.1-.4,0,0,0-.1,0-.2,0,0,0-.2,0-.3-.1-.5-.2-1-.2-1.4h0c0-.2,0-.2,0-.3,0,0,0-.2,0-.2t0,0c0-.2,0-.4,0-.7,0-.1,0-.2,0-.3,0,0,0-.2.1-.3,0-.2.1-.4.2-.6,0-.1.1-.2.2-.3,0,0,0,0,0,0,0,0,0,0,0,0,0-.1.1-.2.2-.3,0-.2.2-.3.3-.5.3-.5.7-.9,1.1-1.3.2-.2.3-.3.5-.5.3-.3.7-.6,1.1-.8.2-.1.3-.2.5-.3l.3-.2c.2-.1.3-.2.5-.3.3-.2.6-.3.9-.4.3-.1.5-.2.8-.3.2,0,.5-.2.7-.2.2,0,.5-.2.7-.2,0,0,.2,0,.3,0,.4,0,.8-.1,1.2-.2.2,0,.3,0,.5,0,.4,0,.7-.1,1.1-.2,0,0,.2,0,.3,0h0c.2,0,.4,0,.6,0,.2,0,.3,0,.5,0,.9,0,1.8-.1,2.8,0h.9c.2,0,.3,0,.5,0,.2,0,.3,0,.5,0,.4,0,.8,0,1.2,0,.4,0,.8,0,1.2,0,1.4,0,2.8.2,4,.3.6,0,1.1.1,1.7.2.7,0,1.3.1,2,.2.7,0,1.3.2,2,.3.5,0,1,.1,1.5.2.2,0,.5,0,.7.1,0,0,0,0,.1,0,.8.1,1.5.3,2.3.4.8.1,1.5.3,2.3.5.2,0,.4,0,.6.1,1,.2,2.1.5,3.1.8.2,0,.4.1.7.2.4.1.8.2,1.2.3.8.2,1.7.5,2.5.7.4.1.8.2,1.3.4.3.1.7.2,1.1.3.2,0,.3,0,.5.2.4.1.8.2,1.2.4.5.2.9.3,1.4.5.5.2,1,.3,1.4.5,0,1-.2,1.9-.2,2.9,0,1,0,1.9,0,2.9v1c0,0,0,.2,0,.3,0,0,0,.2,0,.3,0,0,0,0,0,.1,0,2.4.2,4.9.5,7.3,0,.4,0,.7.1,1.1,0,.2,0,.3,0,.5,0,.4.1.8.2,1.2v.7c.3,1.1.5,2.2.7,3.2.2.9.4,1.8.6,2.7,0,0,0,.2,0,.3,0,0,0,.2,0,.3h0ZM543.9,434.6c.6-1.6,1.3-3.1,2.3-4.6.1-.3.3-.5.5-.8.5-.8,1.1-1.7,1.8-2.4.7-.8,1.5-1.6,2.4-2.3.1,0,.2-.2.3-.2,6.8-5,16.1-3.2,22.4.2,1.2.6,2.3,1.3,3.4,2h0c1.6,1,3.1,2.1,4.6,3.3,0,0,0,0,0,0,1.1.9,2.1,1.9,3,2.9,0,0,.2.2.3.3.2.2.4.4.7.7,0,0,0,0,0,0-.8.7-1.7,1.4-2.5,2.1-.3.3-.7.5-1,.8-.6.5-1.2,1-1.8,1.4-11.9,9.3-22,13.3-39.8,12.7.2-2.3.5-4.8,1-7.5.1-.6.2-1.2.4-1.9.2-.8.4-1.7.7-2.6.2-.8.5-1.7.8-2.5.2-.6.4-1.1.6-1.7ZM591.3,455.3c-1.7.9-3.4,1.7-5.1,2.5h0c-1.4.7-2.8,1.3-4.1,1.9-3.3,1.5-6.6,2.9-10,4.3-1.7.7-3.3,1.3-5,1.9-.2,0-.4.1-.5.2-.2,0-.3.1-.5.2-.3.1-.7.3-1,.4-.6.2-1.2.4-1.8.6-.3,0-.5.2-.8.3-.8.3-1.7.6-2.6.9-.8.3-1.6.5-2.3.7-1.1.4-2.3.7-3.4,1-1.3.4-2.6.8-3.9,1.1s-2.6.7-3.9,1.1c-1.1.3-2.2.6-3.3.8,0,0,0,0-.1,0h0c0-.2-.1-.5-.2-.7,0-.2-.1-.5-.2-.7-.2-.6-.3-1.1-.5-1.7-.3-1.1-.5-2.2-.8-3.3,0-.2-.1-.5-.2-.7,0-.5-.2-.9-.2-1.4-.1-.8-.3-1.6-.3-2.4-.2-1.5-.3-3-.3-4.6,0-.4,0-.9,0-1.3v-.3c0-.2,0-.5,0-.7,2.6,0,5.1,0,7.4,0,.6,0,1.2,0,1.8,0,.6,0,1.2,0,1.7-.1.3,0,.5,0,.8,0h.2c2.3-.3,4.5-.6,6.6-1.1h0c.7-.2,1.4-.3,2.1-.5.2,0,.5-.2.7-.2.4-.1.9-.2,1.3-.3,1.3-.4,2.6-.8,3.9-1.3.4-.2.9-.3,1.3-.5,0,0,.2-.1.3-.2.4-.2.7-.3,1.1-.5.2,0,.3-.2.5-.3.3-.1.6-.3.9-.4.2,0,.4-.2.6-.3.3-.2.6-.3.9-.5.4-.2.8-.4,1.2-.7.5-.3,1.1-.6,1.7-1,.3-.1.5-.3.8-.5.6-.4,1.2-.8,1.8-1.2.2-.1.4-.3.5-.4h0c0,0,.1,0,.2-.1.3-.2.7-.5,1-.7s.3-.2.5-.3c.4-.3.9-.7,1.3-1,2.2-1.6,4.4-3.4,6.7-5.4h0c.2-.2.4-.3.6-.5.2.3.4.5.6.8h0s0,0,0,.1c.2.3.4.7.6,1,0,0,.1.2.2.2.9,1.5,1.8,3,2.5,4.7.2.4.4.8.5,1.2.3.7.6,1.3.8,2,.1.3.3.7.4,1,0,.1.1.2.2.4,0,.1,0,.2.1.4h0c.2.7.5,1.3.7,1.9.2.6.4,1.1.6,1.7-1.5.8-3,1.6-4.5,2.4ZM608.4,445.5l-1.3.8c-2.4,1.5-4.7,2.9-7.1,4.3h0c0-.2-.1-.3-.2-.5-.5-1.6-1.1-3.1-1.7-4.5-.2-.5-.4-.9-.6-1.3-.6-1.4-1.2-2.6-1.9-3.9h0c0-.2-.2-.4-.3-.5-.5-.9-1-1.8-1.5-2.7-.4-.7-.9-1.3-1.3-2,0-.2-.2-.3-.3-.4,0,0-.1-.2-.2-.3h0c-.6-.9-1.2-1.7-1.9-2.5-.9-1.1-1.9-2.2-2.9-3.2-1.6-1.6-3.4-3.1-5.3-4.5-.5-.4-1-.7-1.5-1-1.5-1-3.1-1.9-4.8-2.8-1.6-.9-3.3-1.6-5.2-2.3h0c-.7-.2-1.5-.5-2.3-.7-1.2-.3-2.4-.5-3.6-.7-.8,0-1.6-.2-2.4-.2-4.9-.2-10,1-14.3,4.3-.7.6-1.4,1.2-2,1.8-.6.7-1.2,1.3-1.8,2-.3.4-.7.8-1,1.2-.3.4-.6.8-.9,1.3-.5.8-1,1.7-1.4,2.5-.2.3-.3.6-.5,1-.3.8-.7,1.5-1,2.3-.2.5-.4,1-.6,1.6,0,.3-.2.5-.3.8-.2.7-.5,1.5-.7,2.1-.2.9-.5,1.7-.6,2.5-.2.8-.3,1.7-.5,2.5,0,0,0,0,0,0s0,0,0,0c-.6,3.2-1,6.2-1.2,9.1,0,1-.1,1.9-.1,2.9,0,1.8,0,3.7,0,5.5.3,4.8,1.2,9.4,2.7,14.3h0c-.7.2-1.3.3-2,.4-1.3.3-2.7.5-4,.8-1.9.4-3.8.7-5.7,1-1.5.2-3,.5-4.5.7-1.2.2-2.3.3-3.5.4-1.2.2-2.4.3-3.7.4-1.5.2-3,.3-4.5.4-.8,0-1.5.2-2.3.2-1.2.1-2.4.2-3.6.2-1,0-2,.1-3,.2-.3,0-.6,0-.8,0-1.2,0-2.4.1-3.6.1-5.3.1-10.7,0-16-.3l-3-.2h0c0-.1,0-.2,0-.3,0,0,0,0,0,0,0,0,0-.2,0-.3h0c-.2-.6-.3-1.1-.4-1.7-.2-1-.5-1.9-.6-2.8-.2-.8-.3-1.7-.4-2.5v-.4c-.5-2.9-.8-5.8-.8-8.7h0c0-.5,0-1.1,0-1.6s0-.5,0-.8c0-.3,0-.5,0-.8v-.7c0-1.3,0-2.6.2-3.9,0-.9.2-1.8.3-2.7,0-.7.2-1.3.3-2h0c0-.7.2-1.3.3-2,0-.2,0-.3.1-.5.2-1.1.5-2.2.8-3.4h0c.4-1.5.8-2.9,1.3-4.3.2-.7.5-1.4.7-2.1.3-.8.6-1.6.9-2.3.3-.6.5-1.2.8-1.9.3-.7.6-1.4.9-2,.7-1.3,1.3-2.7,2.1-4,.5-.8,1-1.7,1.4-2.5,1.5-2.5,3.1-4.8,4.9-7,.9-1.1,1.8-2.2,2.7-3.3,1-1.1,1.9-2.1,2.9-3.1.5-.5,1-1,1.5-1.5.5-.5,1-1,1.6-1.4.5-.5,1.1-.9,1.6-1.4,1.4-1.2,2.8-2.2,4.2-3.2.4-.3.9-.7,1.4-1,1-.7,2-1.3,3-1.9,1.6-1,3.3-1.9,4.9-2.7.8-.4,1.7-.8,2.5-1.2,2.1,4.5,5.3,7.9,9.6,10,4.5,2.2,10,2.7,15.3,1.5.5-.1,1.1-.3,1.6-.4.3,0,.5-.2.8-.2.3,0,.5-.2.8-.2,0,0,.1,0,.2-.1,0,0,.2,0,.2,0,.7-.3,1.5-.6,2.2-1,1.3-.6,2.4-1.4,3.5-2.3.6-.4,1.1-.9,1.6-1.4.2-.3.5-.5.7-.8.1-.1.2-.3.3-.4.1-.1.2-.3.3-.4h0c.9-1.2,1.4-2.3,1.9-3.4.1-.3.2-.6.3-.8h0c0-.1,0-.2.1-.3.1-.4.3-.8.3-1.1.1-.4.3-.7.3-1.1,0-.1,0-.2,0-.3,0-.1,0-.2,0-.3.9.2,1.7.4,2.6.7.9.2,1.7.5,2.6.8,18.9,6.3,35.6,20.8,45.2,40.3.4.8.8,1.6,1.2,2.4.1.3.3.6.4.9.3.6.5,1.3.8,1.9.1.2.2.5.3.8,0,.2.2.4.2.6h0c.1.3.2.5.3.8,0,.3.2.5.3.8,0,0,0,0,0,0,0,0,0,0,0,0h0s-2.6,1.6-2.6,1.6h-.2ZM582,424.3c-.5-.4-1-.7-1.5-1-1.5-1-3.1-1.9-4.8-2.8-1.6-.9-3.3-1.6-5.2-2.3h0c-.7-.2-1.5-.5-2.3-.7-1.2-.3-2.4-.5-3.6-.7-.8,0-1.6-.2-2.4-.2-4.9-.2-10,1-14.3,4.3-.7.6-1.4,1.2-2,1.8-.6.7-1.2,1.3-1.8,2,2.3-.2,4.6-.3,7-.3,6.8-5,16.1-3.2,22.4.2,1.2.6,2.3,1.3,3.4,2h0c3.4.6,6.9,1.3,10.4,2.3-1.6-1.6-3.4-3.1-5.3-4.5ZM582,424.3c-.5-.4-1-.7-1.5-1-1.5-1-3.1-1.9-4.8-2.8-1.6-.9-3.3-1.6-5.2-2.3h0c-.7-.2-1.5-.5-2.3-.7-1.2-.3-2.4-.5-3.6-.7-.8,0-1.6-.2-2.4-.2-4.9-.2-10,1-14.3,4.3-.7.6-1.4,1.2-2,1.8-.6.7-1.2,1.3-1.8,2,2.3-.2,4.6-.3,7-.3,6.8-5,16.1-3.2,22.4.2,1.2.6,2.3,1.3,3.4,2h0c3.4.6,6.9,1.3,10.4,2.3-1.6-1.6-3.4-3.1-5.3-4.5ZM590.3,432c-.9-1.1-1.9-2.2-2.9-3.2-1.6-1.6-3.4-3.1-5.3-4.5-.5-.4-1-.7-1.5-1-1.5-1-3.1-1.9-4.8-2.8-1.6-.9-3.3-1.6-5.2-2.3h0c-.7-.2-1.5-.5-2.3-.7-1.2-.3-2.4-.5-3.6-.7-.8,0-1.6-.2-2.4-.2-4.9-.2-10,1-14.3,4.3-.7.6-1.4,1.2-2,1.8-.6.7-1.2,1.3-1.8,2-.3.4-.7.8-1,1.2-.3.4-.6.8-.9,1.3-.5.8-1,1.7-1.4,2.5-.2.3-.3.6-.5,1-.3.8-.7,1.5-1,2.3-.2.5-.4,1-.6,1.6,0,.3-.2.5-.3.8-.2.7-.5,1.5-.7,2.1,1.8-.4,3.6-.8,5.4-1.2.2-.6.4-1.1.6-1.7.6-1.6,1.3-3.1,2.3-4.6.1-.3.3-.5.5-.8.5-.8,1.1-1.7,1.8-2.4.7-.8,1.5-1.6,2.4-2.3.1,0,.2-.2.3-.2,6.8-5,16.1-3.2,22.4.2,1.2.6,2.3,1.3,3.4,2h0c1.6,1,3.1,2.1,4.6,3.3,0,0,0,0,0,0,1.1.9,2.1,1.9,3,2.9,0,0,.2.2.3.3.2.2.4.4.7.7,1.1.1,2.2.2,3.3.4,0,0,0,0,0,0,.5,0,1.1.1,1.7.2,0,0,.1,0,.2,0,.5,0,1,.1,1.5.2h0c-.6-.9-1.2-1.7-1.9-2.5Z"/>
          <path class="st1" d="M478.1,478.8h0c0-.2-.1-.4-.2-.6,0,.2.1.4.2.6Z"/>
          <path class="st1" d="M475.8,454.4c-.1,1.3-.2,2.6-.2,3.9,0,.2,0,.5,0,.7,0-.2,0-.5,0-.7,0-1.3,0-2.6.2-3.9Z"/>
          <path class="st1" d="M475.6,462.1c0-1.1,0-2.1,0-3.1,0,1,0,2.1,0,3.1Z"/>
          <path class="st1" d="M493.3,414.4c1.9-2.1,3.9-4.1,6-6-2.1,1.9-4.1,3.9-6,6Z"/>
          <path class="st1" d="M514.4,398.2c-1.7.8-3.3,1.7-4.9,2.7,1.6-1,3.2-1.9,4.9-2.7Z"/>
          <path class="st1" d="M517,397.1h0c-.9.4-1.7.8-2.5,1.2.8-.4,1.7-.8,2.5-1.2Z"/>
          <path class="st1" d="M545.3,407.6c0,0-.1,0-.2,0-.5.2-1.1.3-1.6.5.5-.1,1-.3,1.6-.5,0,0,.1,0,.2,0Z"/>
          <path class="st1" d="M545.5,407.5c.7-.3,1.5-.6,2.2-1-.7.4-1.4.7-2.2,1Z"/>
          <path class="st1" d="M554.1,401.2h0c-.2.3-.4.6-.7.8.2-.3.4-.5.7-.8Z"/>
          <path class="st1" d="M557.3,393.8c0,.2-.1.4-.2.7,0,.4-.2.7-.4,1.1.1-.4.2-.7.3-1.1,0-.2.1-.5.2-.7h0Z"/>
          <path class="st1" d="M420,458.4c2.5,5.8,8.8,9.6,15.3,12.8,7.6,3.8,16.5,5.4,23.4,6.3,4.4.6,9,.8,13.4,1,.3,0,.7,0,1,0-2.1-8.3-2.7-16.7-2-24.8-12.6-4.3-19.4-5.6-32.8-6.6-5.1-.4-9.3,0-12.6,1.3-2.6,1-4.8,2.9-5.7,5.1-.7,1.6-.7,3.3,0,4.9Z"/>
          <path class="st1" d="M542.8,473.3c18.4-4.4,36.1-11.2,52.9-20.4-1.9-6.1-4.3-11.2-7.3-15.4-10.2,8.8-18.6,14.2-29.8,16.7-5.4,1.2-11.4,1.6-18.5,1.4-.1,6.1.8,11.6,2.7,17.8Z"/>
        </g>
        <path class="st1" d="M476.1,646.4c-3.3-3.7-6.5-7.6-9.6-11.8-2.2-2.9-4.3-5.9-6.3-8.9-4.1-5.8-8.3-11.8-13.1-17.2-1-1.2-2.2-2.4-3.3-3.6l-.7-.7c-2.1-1.8-3.9-3.3-6-4.6-.5-.3-1-.7-1.6-1l-2.3-1.4-1.1,2c-4.1,7.5-9.9,12.2-17.2,14-.1,0-.2,0-.3,0,.4.8.8,1.5,1.3,2.3.3.5.7,1,1.1,1.6,7.4-2.1,13.4-6.7,17.9-13.9,1.8,1.2,3.5,2.5,5.3,4.1l.6.6c1.1,1.1,2.1,2.2,3.1,3.3,4.7,5.3,8.8,11.1,12.8,16.8,2.1,3,4.2,6,6.4,8.9,2.4,3.3,4.9,6.4,7.5,9.4,1.2,1.5,2.5,2.9,3.8,4.3,1.8-.1,3.6-.3,5.4-.5-1.2-1.3-2.4-2.6-3.6-3.9ZM479.8,650.4c-1.2-1.3-2.4-2.6-3.6-3.9-3.3-3.7-6.5-7.6-9.6-11.8-2.2-2.9-4.3-5.9-6.3-8.9-4.1-5.8-8.3-11.8-13.1-17.2-1-1.2-2.2-2.4-3.3-3.6l-.7-.7c-2.1-1.8-3.9-3.3-6-4.6-.5-.3-1-.7-1.6-1l-2.3-1.4-1.1,2c-4.1,7.5-9.9,12.2-17.2,14-.1,0-.2,0-.3,0-1.5.3-3.1.5-4.7.5-4.8,0-9.7-1.6-13.6-4.7-4.9-3.7-7.7-9-7.8-14.8-.2-7.4,3.5-13.2,8.8-17.4-.3-1.5-.6-3.1-.9-4.7-7.1,5-12.5,12.3-12.2,22.2.2,7,3.6,13.6,9.5,18.1,5.3,4.1,12.1,6.1,18.7,5.4,1.2-.1,2.5-.3,3.7-.6.3,0,.7-.2,1-.3,7.4-2.1,13.4-6.7,17.9-13.9,1.8,1.2,3.5,2.5,5.3,4.1l.6.6c1.1,1.1,2.1,2.2,3.1,3.3,4.7,5.3,8.8,11.1,12.8,16.8,2.1,3,4.2,6,6.4,8.9,2.4,3.3,4.9,6.4,7.5,9.4,1.2,1.5,2.5,2.9,3.8,4.3,8.2,9,17.1,16.8,26.6,23.3,1.7-.6,3.4-1.2,5.1-1.8-9.3-6.1-18.1-13.4-26.2-22ZM644.4,605.1c-1-6.6-2.7-13.1-4.7-19.6-.5-1.5-.9-2.9-1.4-4.4-.2.2-.3.3-.5.5-.5.5-1,.9-1.5,1.3-.5.5-1.1.9-1.6,1.4h0c.4,1.3.8,2.6,1.2,3.9,0,.1,0,.2.1.4,0,0,0,0,0,.1.2.5.3,1.1.5,1.6h0c5.3,18.4,7.2,36.9-.3,54.7-4.2,10-11.1,19.2-19.8,26.7-8.2,7-18.3,12.3-30.1,15.7-21,6.1-46.4,3.1-68-7.9-2.6-1.3-5.2-2.8-7.8-4.3-1.5-.9-3-1.8-4.5-2.8-9.3-6.1-18.1-13.4-26.2-22-1.2-1.3-2.4-2.6-3.6-3.9-3.3-3.7-6.5-7.6-9.6-11.8-2.2-2.9-4.3-5.9-6.3-8.9-4.1-5.8-8.3-11.8-13.1-17.2-1-1.2-2.2-2.4-3.3-3.6l-.7-.7c-2.1-1.8-3.9-3.3-6-4.6-.5-.3-1-.7-1.6-1l-2.3-1.4-1.1,2c-4.1,7.5-9.9,12.2-17.2,14-.1,0-.2,0-.3,0-1.5.3-3.1.5-4.7.5-4.8,0-9.7-1.6-13.6-4.7-4.9-3.7-7.7-9-7.8-14.8-.2-7.4,3.5-13.2,8.8-17.4,1.2-1,2.5-1.9,3.9-2.7,2.9-1.7,6-3,9.1-4,8.6-2.5,18.2-2.2,28.4,1,17.6,5.5,29.8,20.1,39.3,33.6l2.2,3.1c3.9,5.6,8,11.3,12.4,16.7,2.7,3.3,5.5,6.4,8.3,9.3,1,1,2,2,3.1,3.1.4.5.9.9,1.4,1.3l.2.2c.5.5,1.1,1,1.7,1.5,0,0,0,0,.1.1,6,5.3,12.7,10,19.9,14.2l.5.2c1,.5,2.1,1.1,3.2,1.6.4.2.8.4,1.2.5,1.4.6,2.8,1.2,4.2,1.8.1,0,.2,0,.3.1,3.1,1.2,6.4,2.3,10.3,3.3,6.3,1.3,12.5,2,18.9,2,5.1-.3,10.2-1.1,15.1-2.4,4.1-1.4,8.2-3.2,12.1-5.5,2.9-1.9,5.3-3.7,7.4-5.6.7-.6,1.4-1.2,2-1.8.2-.1.5-.5.9-.8.3-.3.6-.7.7-.8.6-.7,1.2-1.4,1.7-2.1,1.2-1.6,2.4-3.1,3.4-4.8.2-.4.5-.8.8-1.2l.4-.8c1.3-2.5,2.3-5.3,3.3-8.4,0-.2.1-.5.1-.7h0c.7-3.8,1.2-7.7,1.2-11.8-.3-4.7-1-9.5-2.2-14.7h0c0-.2,0-.3,0-.4-.3-1.3-.6-2.6-1-3.9-.3.1-.6.2-.8.3-1.1.4-2.1.8-3.2,1.2.4,1.5.7,2.9,1,4.3h0c1.1,4.8,1.7,9.1,2,13.3,0,3.9-.5,7.8-1.2,11.4-.8,2.6-1.8,5.2-3,7.5l-.2.4c-.2.4-.4.7-.7,1.1-1,1.5-2,3-3.1,4.4-.5.7-1,1.3-1.6,2-.1,0-.4.4-.6.6-.3.3-.6.6-.7.7-.6.6-1.3,1.2-1.9,1.7-2,1.7-4.2,3.4-6.8,5.1-3.6,2-7.4,3.7-11.1,5-4.5,1.2-9.3,1.9-14,2.2-5.9,0-11.9-.7-17.7-1.9-2.8-.8-5.4-1.5-7.7-2.4-.8-.3-1.5-.6-2.3-.9-.7-.3-1.5-.6-2.2-.9-1-.4-2-.8-3-1.3l-3.1-1.5-.3-.2c-6.6-3.8-12.9-8.3-18.5-13.1-.2-.2-.4-.3-.6-.5-.6-.5-1.2-1-1.8-1.5l-.2-.2c-.3-.2-.5-.5-.7-.7-1.2-1.2-2.4-2.3-3.5-3.5-2.7-2.8-5.4-5.9-8.1-9.1-4.3-5.2-8.3-10.9-12.2-16.4l-2.2-3.1c-9.4-13.2-22.6-29.2-41.5-35.2-11.1-3.5-21.5-3.8-30.9-1-2.9.9-5.8,2.1-8.7,3.6-1.4.7-2.7,1.5-4,2.5-7.1,5-12.5,12.3-12.2,22.2.2,7,3.6,13.6,9.5,18.1,5.3,4.1,12.1,6.1,18.7,5.4,1.2-.1,2.5-.3,3.7-.6.3,0,.7-.2,1-.3,7.4-2.1,13.4-6.7,17.9-13.9,1.8,1.2,3.5,2.5,5.3,4.1l.6.6c1.1,1.1,2.1,2.2,3.1,3.3,4.7,5.3,8.8,11.1,12.8,16.8,2.1,3,4.2,6,6.4,8.9,2.4,3.3,4.9,6.4,7.5,9.4,1.2,1.5,2.5,2.9,3.8,4.3,8.2,9,17.1,16.8,26.6,23.3,1.5,1.1,3,2.1,4.6,3,3.5,2.2,7.1,4.3,10.8,6.1,19.3,9.8,41.5,13.5,61.3,10.4,3.4-.5,6.7-1.3,9.9-2.2,12.4-3.6,23.1-9.2,31.7-16.6,9.3-7.9,16.5-17.7,21-28.3,5.8-13.7,6.4-27.6,4.2-41.5ZM476.1,646.4c-3.3-3.7-6.5-7.6-9.6-11.8-2.2-2.9-4.3-5.9-6.3-8.9-4.1-5.8-8.3-11.8-13.1-17.2-1-1.2-2.2-2.4-3.3-3.6l-.7-.7c-2.1-1.8-3.9-3.3-6-4.6-.5-.3-1-.7-1.6-1l-2.3-1.4-1.1,2c-4.1,7.5-9.9,12.2-17.2,14-.1,0-.2,0-.3,0-1.5.3-3.1.5-4.7.5-4.8,0-9.7-1.6-13.6-4.7-4.9-3.7-7.7-9-7.8-14.8-.2-7.4,3.5-13.2,8.8-17.4-.3-1.5-.6-3.1-.9-4.7-7.1,5-12.5,12.3-12.2,22.2.2,7,3.6,13.6,9.5,18.1,5.3,4.1,12.1,6.1,18.7,5.4,1.2-.1,2.5-.3,3.7-.6.3,0,.7-.2,1-.3,7.4-2.1,13.4-6.7,17.9-13.9,1.8,1.2,3.5,2.5,5.3,4.1l.6.6c1.1,1.1,2.1,2.2,3.1,3.3,4.7,5.3,8.8,11.1,12.8,16.8,2.1,3,4.2,6,6.4,8.9,2.4,3.3,4.9,6.4,7.5,9.4,1.2,1.5,2.5,2.9,3.8,4.3,1.8-.1,3.6-.3,5.4-.5-1.2-1.3-2.4-2.6-3.6-3.9ZM476.1,646.4c-3.3-3.7-6.5-7.6-9.6-11.8-2.2-2.9-4.3-5.9-6.3-8.9-4.1-5.8-8.3-11.8-13.1-17.2-1-1.2-2.2-2.4-3.3-3.6l-.7-.7c-2.1-1.8-3.9-3.3-6-4.6-.5-.3-1-.7-1.6-1l-2.3-1.4-1.1,2c-4.1,7.5-9.9,12.2-17.2,14-.1,0-.2,0-.3,0-1.5.3-3.1.5-4.7.5.7,1.4,1.5,2.7,2.3,4.1,0,0,0,0,0,.1,1.2-.1,2.5-.3,3.7-.6.3,0,.7-.2,1-.3,7.4-2.1,13.4-6.7,17.9-13.9,1.8,1.2,3.5,2.5,5.3,4.1l.6.6c1.1,1.1,2.1,2.2,3.1,3.3,4.7,5.3,8.8,11.1,12.8,16.8,2.1,3,4.2,6,6.4,8.9,2.4,3.3,4.9,6.4,7.5,9.4,1.2,1.5,2.5,2.9,3.8,4.3,1.8-.1,3.6-.3,5.4-.5-1.2-1.3-2.4-2.6-3.6-3.9Z"/>
        <polygon class="st1" points="638.8 586.4 611.2 633.1 611.2 602.9 638.8 586.4"/>
        <path class="st1" d="M477.9,478.1h0c-.7,1.8-1.4,3.6-2,5.4h0c-2.8,8.3-4.4,16.9-4.8,25.7,0,1.5,0,2.9,0,4.4h0c-.3,0-.7,0-1-.1-.3,0-.6,0-.8-.1h-.8c-.5-.2-1-.3-1.5-.4v-.2c0-1.4,0-2.8.1-4.1,0-1.9.2-3.8.4-5.7.7-6.6,2-13.2,4-19.6h0c.5-1.6,1.1-3.2,1.7-4.7h0s0,0,0,0c0,0,0,0,0,0h0c1-2.5,2.1-5,3.3-7.3.1.8.3,1.7.4,2.5.2.9.4,1.8.6,2.8.1.5.2,1.1.4,1.6Z"/>
        <path class="st0" d="M531.5,606.5c-.3,0-.5-.2-.8-.2.3,0,.5.2.8.3,0,0,.1,0,.2,0h0s-.1,0-.2,0Z"/>
        <path class="st0" d="M473.3,535.4c-1.5-.1-3-.2-4.5-.4-.3-1.5-.5-3-.7-4.5,1.5.2,3,.3,4.4.4.2,1.5.5,3,.8,4.4Z"/>
        <path class="st0" d="M530.2,606.1c-.1,0-.2,0-.4-.1,0,0-.2,0-.2,0,0,0,.2,0,.2,0,.1,0,.2,0,.4.1Z"/>
        <path class="st0" d="M531.7,606.5h0s-.1,0-.2,0c-.3,0-.5-.2-.8-.3.2,0,.5.2.8.2,0,0,.1,0,.2,0Z"/>
        <path class="st0" d="M466.9,508.6c0,.5,0,1.1,0,1.6,0,.9,0,1.7,0,2.6,0,0,0,0,0,0,0-1.3,0-2.6.1-3.9v-.2s0,0,0,0Z"/>
        <path class="st0" d="M471,510.3c0,1.1,0,2.1,0,3.2h0c0-1,0-2.1,0-3.2,0,0,0,0,0,0Z"/>
        <path class="st0" d="M466.8,508.6v.2c0,1.3,0,2.6-.1,3.9,0,0,0,0,0,0,0-.8,0-1.7,0-2.6,0-.5,0-1,0-1.6,0,0,0,0,0,0ZM471,510.3c0,1.1,0,2.2,0,3.2h0c0-1.1,0-2.1,0-3.2,0,0,0,0,0,0Z"/>
        <path class="st0" d="M584.8,610c-.6,0-1.2.2-1.8.3.6,0,1.2-.2,1.8-.2l.8-.2h-.8Z"/>
        <path class="st1" d="M663,542.4c-1.2,7.8-3.5,15.3-7.2,22.4-4.1,7.8-9.7,14.7-16.2,20.7-.4.4-.8.8-1.3,1.2-.8.7-1.5,1.3-2.3,2-3.7,3.1-7.6,5.8-11.7,8.2-3.8,2.2-7.8,4.2-11.9,5.9h0c-.4.2-.8.4-1.3.5-.9.4-1.9.7-2.8,1-3.4,1.2-6.8,2.2-10.3,3-3.2.8-6.6,1.7-10.2,2.3,0,0-.4,0-.8.2h-.4c0,0-.1,0-.2.1-.2,0-.4,0-.5,0-.2,0-.3,0-.3,0h-.8c-.6.2-1.2.3-1.8.4-1.2.2-2.5.3-3.8.4s-1.3.1-2,.2c-.5,0-.9,0-1.3.1-.5,0-.9,0-1.3.1-1,0-1.9.2-2.9.2-1.4,0-2.7.1-4,.2-.3,0-.6,0-.9,0,0,0-.2,0-.3,0h0c-5.1,16.9-14.2,31.9-26.5,43.8-.8-.3-1.5-.6-2.3-.9-.7-.3-1.5-.6-2.2-.9,11.9-11,20.8-25.1,26.1-40.9l-39.5,14.2c-.7.8-1.3,1.6-2,2.4l-1.3,1.3c-.7.7-1.4,1.3-2.1,2-1.9,1.7-3.9,3.4-6.1,5-.2-.2-.4-.3-.6-.5-.6-.5-1.2-1-1.8-1.5l-.2-.2c-.3-.2-.5-.5-.7-.7,2.2-1.7,4.4-3.5,6.3-5.3.7-.6,1.3-1.3,2-1.9l1-1.1c1.6-1.8,3.1-3.7,4.6-5.7,1.5-2,3-4.2,4.3-6.4l.7-1.2c.4-.7.7-1.5,1.1-2.2.8-1.6,1.5-3.3,2.1-5,0,0,.2,0,.2,0,.1,0,.3,0,.4.1-.1,0-.2,0-.4-.1,0,0-.2,0-.2,0-6.8-1.7-13.8-5.9-19.7-9.5-3.6-2.2-7.1-4.7-10.3-7.4-3.2-2.7-6.2-5.6-8.9-8.6-2.7-3-5.3-6.3-7.5-9.7-7.1-10.6-11.8-23-14.3-35.7,1.5.2,3,.3,4.5.4,1.3,6.2,3.1,12.2,5.4,18,.3.8.7,1.7,1,2.5,6,14.2,15.8,26.2,28.7,34.6.1,0,.3.2.4.3.1.1.3.2.4.3,1.4.9,2.8,1.8,4.3,2.6.2.1.3.2.5.3.2.1.3.2.5.3,4.5,2.6,9.3,4.8,14.1,6.6.2,0,.4.2.6.2.2,0,.4.2.6.2.3.1.6.2.9.3.1,0,.2,0,.4.1.3.1.7.2,1,.3.2.1.5.2.7.3.3,0,.5.2.7.2.4.1.7.2,1.1.3.2,0,.4.1.5.2.7.2,1.3.4,2,.6.7.2,1.3.4,2,.5,7.2,1.8,14.5,2.8,22.6,3,.1,0,.2,0,.4,0,.3,0,.7,0,1.1,0,0,0,.1,0,.2,0,.2,0,.4,0,.5,0,.5,0,.9,0,1.4,0s.2,0,.3,0c.2,0,.4,0,.6,0,.5,0,1.1,0,1.6,0,2.3,0,4.7-.2,7-.4,1.8-.1,3.6-.3,5.4-.5,1.4-.2,2.7-.3,4.1-.6.3,0,.7-.1,1-.2.2,0,.3,0,.5,0,.2,0,.3,0,.5,0,.4,0,.7-.1,1.1-.2.3,0,.7-.1,1.1-.2h0c1.4-.3,2.7-.5,4-.8.3,0,.6-.1.9-.2,1.2-.3,2.6-.6,3.7-.9h0s0,0,0,0h0s0,0,0,0c3.4-.9,6.7-1.9,10-3.1,9.9-3.6,19.3-8.8,27.3-15.7.5-.4,1.1-.9,1.6-1.4.5-.4,1-.9,1.5-1.3.2-.2.3-.3.5-.5.4-.4.9-.8,1.3-1.3,18.7-18.9,23.5-45.8,18.2-70.9-.3-1.4-.6-2.8-1-4.2,1.4-.3,2.7-.6,4.1-.9.4,1.4.7,2.8,1,4.2.5,2.4,1,4.8,1.3,7.3,1.2,8.9,1.4,18.2,0,27.1Z"/>
        <path class="st1" d="M655,487.5c-1.2.3-2.3.5-3.5.8-.1,0-.4,0-.6.1-.2-.3-.3-.7-.5-1-.5-1-1-2-1.5-3h0c-1.3-2.6-2.8-5.2-4.5-7.7-7.8-11.9-18.5-21.8-30.9-28.7-1.6-.9-3.2-1.7-4.9-2.5,0,0,0,0,0,0,.9-.5,1.7-1,2.6-1.6h0c-.1-.3-.2-.5-.3-.8-.1-.5-.3-.9-.4-1.3,2.1,1,4.1,2.2,6.1,3.3.1,0,.2.1.3.2,12.4,7.3,23,17.6,30.9,29.6,1.9,2.8,3.6,5.8,5.2,8.8.7,1.3,1.3,2.6,2,4Z"/>
        <path class="st1" d="M472.5,531c-1.5-.1-3-.3-4.4-.4-6.3-.8-12.5-2-18.6-3.6-41.3-11.2-72.2-40-90.8-62.1-24.5-29.1-42.8-62.9-53.1-97.7-1.5-4.9,2.1-9.4,6.2-10.7.7-.2,1.4-.3,2.2-.3,1.3,0,2.6.3,3.8,1,2.2,1.2,3.9,3.2,4.6,5.5,1.4,4.6,2.9,9.2,4.5,13.6.8,2.2,1.7,4.5,2.5,6.7.4,1,.8,1.9,1.2,2.9,0,.7.4,1.4,1,2.4,3.9,9,8.3,17.8,13.1,26.2,4.5,7.9,9.3,15.6,14.5,22.8,1.3,1.9,2.7,3.8,4.1,5.6.5.7,1,1.4,1.6,2.1,0,0,0,0,0,0h0,0c0,.2.2.3.2.4.1.1.2.2.3.3v.2h.1l.7.9c2.9,3.6,5.9,7.2,8.9,10.6,6.1,6.9,12.6,13.3,19.1,19.2,1.8,1.6,3.6,3.1,5.5,4.7.8.6,1.6,1.3,2.3,1.9l.7.6h0c.2.2.4.3.6.5,3.3,2.7,6.9,5.1,10.4,7.4,7.6,5,15.4,9.3,23.2,12.8l.6.3c.2.1.4.2.6.3.2,0,.5.2.9.3l.3.2c.6.2,1.1.4,1.7.7,1.9.7,3.9,1.4,5.8,2.1,4.2,1.4,8.4,2.6,12.6,3.5,2.3.5,4.6,1,6.8,1.3.2,0,.3,0,.5,0,.5,0,1,.2,1.5.2h.8c.2.2.5.2.8.2.3,0,.7,0,1,.1h0c0-1.5,0-2.9,0-4.4-.2,0-.5,0-.7,0h0c-.3,0-.7-.2-1.1-.2-.1,0-.2,0-.3,0-.7,0-1.3-.2-2-.3h-.1s0,0,0,0c-2.1-.4-4.2-.8-6.4-1.3-4.1-.9-8.2-2.1-12.2-3.4-1.9-.6-3.8-1.3-5.6-2l-2.6-1.1h0l-1.3-.6c-7.6-3.4-15.2-7.6-22.6-12.4-3.2-2.1-6.5-4.3-9.5-6.7,0,0-.1-.1-.2-.2h0c-.2-.2-.3-.3-.5-.4l-1.2-.9c-.8-.6-1.5-1.2-2.3-1.9-1.8-1.5-3.6-3-5.3-4.6-6.4-5.7-12.7-12-18.7-18.8-3-3.3-5.9-6.8-8.8-10.4l-.9-1.2h-.1c0-.1,0-.3,0-.3-.6-.8-1.2-1.5-1.8-2.3-1.3-1.8-2.7-3.6-4-5.5-5.1-7.2-9.9-14.7-14.3-22.5-4.8-8.4-9.2-17.2-13.1-26.2,0-.2-.2-.4-.3-.6,0,0,0-.1,0-.2,0-.2-.2-.4-.2-.6-.5-1.1-.9-2.2-1.3-3.3-.9-2.2-1.7-4.4-2.5-6.6-1.6-4.3-3-8.8-4.4-13.3-1-3.4-3.5-6.4-6.7-8.1-3-1.6-6.3-1.9-9.4-.9-6.9,2.2-10.9,9.4-9,16,10.4,35.4,29.1,69.7,54,99.2,19,22.6,50.6,51.9,93,63.5,6.7,1.8,13.5,3.1,20.4,3.9,1.5.2,3,.3,4.5.4-.3-1.5-.6-3-.8-4.4Z"/>
        <path class="st1" d="M768.7,300.2c-2.3-6.1-8.7-11.3-16.1-8.9-3.5,1.2-6.8,4-8.4,7.4-1.4,2.9-1.6,6-.5,8.8,2.8,7.4,4.9,14.9,6.5,22.3.3,1.7.7,3.4,1,5.1.2.9.3,1.8.5,2.8l.2,1.6c0,.3,0,.6.2,1,.4,2.8.6,5.7.7,8.6v1.4c.5,7.5.3,15.1-.5,22.5,0,.6-.1,1.2-.2,1.8-.3.6-.3,1.3-.3,2.1-.3,1.8-.5,3.5-.9,5.3-.7,3.6-1.5,7.2-2.5,10.7-1,3.6-2.2,7.3-3.5,10.8l-.2.7c-.4,1.1-.8,2.2-1.2,3.2,0,.1-.1.3-.2.4l-.7,1.5c-.4,1-.9,1.9-1.3,2.8-3.3,6.8-7.1,13.3-11.5,19.2l-.7,1c0,.1-.2.3-.3.4-.2.2-.3.4-.5.6l-.7.9c-1.3,1.5-2.6,3.1-3.9,4.6-2.4,2.7-5,5.3-8,8.1-3,2.8-6.2,5.6-9.4,8.3-1.4,1.2-2.9,2.3-4.4,3.5l-.3.2c-.2.2-.4.3-.6.4l-.8.6c-1,.7-2,1.5-3,2.2-8.5,6.1-17,11.1-25.3,15-.6.3-1.3.6-1.9.8l-1.4.6c-.5.2-1,.4-1.6.6-2.2.9-4.5,1.7-6.6,2.3-2.2.7-4.5,1.3-6.6,1.8-.3,0-.7.2-1,.2-.8.2-1.5.3-2.3.5-.3,0-.8.2-1.4.2-.2,0-.3,0-.4,0,.5,1,1,2,1.5,3,.2.3.3.7.5,1,.3,0,.5,0,.6-.1,1.2-.2,2.3-.5,3.5-.8,2.3-.5,4.6-1.2,6.9-1.9,2.3-.7,4.6-1.5,6.9-2.5.4-.2.9-.3,1.3-.5h.2c.1,0,.2-.1.3-.2.1,0,.2,0,.3-.1h0s1-.5,1-.5c.7-.3,1.3-.6,2-.9,8.5-4,17.3-9.2,26-15.4,1-.7,2-1.5,3-2.2l1.1-.8h0s0,0,0,0h0c1.7-1.3,3.3-2.6,5-4,3.3-2.7,6.5-5.6,9.6-8.4,3.1-2.9,5.8-5.6,8.3-8.4,1.4-1.5,2.8-3.1,4.1-4.7l.7-1c0,0,.1-.1.2-.2,0,0,0,0,.1-.1h0c0-.1,0-.2.1-.2,0,0,.1-.2.2-.2l.9-1.3c4.5-6.2,8.5-12.9,11.9-19.9.5-1,.9-2,1.4-2.9l.3-.7h0c.2-.4.4-.8.5-1.1.5-1.2.9-2.4,1.4-3.6l.2-.7c1.3-3.6,2.6-7.4,3.6-11.2,1-3.6,1.8-7.3,2.6-11.1.4-2,.7-4,1-6,0-.2,0-.3,0-.4,0-.1,0-.2,0-.3.1-1,.2-1.9.3-2.8.8-7.6,1-15.4.5-23.2v-1.4c-.2-3.3-.4-6.7-1-9.9,0-.2,0-.3,0-.5,0,0,0,0,0,0l-.2-1c-.1-1-.3-1.9-.5-2.8-.3-1.8-.7-3.5-1-5.2-1.6-7.7-3.9-15.4-6.7-23-.8-2.2-.2-4.1.4-5.4,1.1-2.4,3.4-4.3,5.8-5.1,4.8-1.5,9.1,2.1,10.6,6.3,6.5,17.4,10,36.5,10.2,55.2.3,34.5-11.2,67.6-32.3,93.1-10,12.2-23.7,24-40.6,35-8.8,5.8-17.7,10.4-26.5,13.9-4.9,1.9-9.8,3.5-14.6,4.7-1.4.3-2.7.7-4.1.9.3,1.4.7,2.8,1,4.2,1.4-.3,2.7-.6,4.1-.9,14.1-3.5,28.4-10,42.5-19.2,17.3-11.3,31.3-23.4,41.6-35.9,21.7-26.3,33.5-60.4,33.2-95.9-.2-19.2-3.8-38.8-10.4-56.7Z"/>
      </g>
      <g>
        <path class="st1" d="M425.7,770l18,7.7c9.1,4,12.7,10.3,9.2,18.6-1.4,3.2-4.7,5.5-7.3,6,3.2,3,3.9,7.5,2.2,11.4-3.7,8.8-10.8,10.6-20,6.9l-20-8.5,17.9-42ZM429.3,806.1c3,1.3,4.5,1.4,5.2-.3.7-1.7-.4-2.7-3.4-4l-2.6-1.1-1.8,4.3,2.6,1.1ZM434.3,793c2.6,1.1,3.9,1.2,4.5-.3s-.3-2.3-2.9-3.4l-2.1-.9-1.6,3.7,2.1.9Z"/>
        <path class="st1" d="M474.7,824.6l-6.4-1.2-1.7,8.8-14.4-2.7,5.2-27.1c2-10.5,14.1-16.3,21.1-14.9s16,11.1,14,21.6l-5.2,27.1-14.4-2.7,1.7-8.8ZM471.5,806.2l-.8,4,6.5,1.2.8-4c.4-2.2,0-4.8-2.2-5.3-2.2-.4-3.8,1.8-4.2,4Z"/>
        <path class="st1" d="M498.3,791.4l14.7-.3.3,14.6h2c1.8,0,3.2-1.2,3.1-3.5l-.2-11.2,14.7-.3.2,11.9c.1,6.2-3.3,9.4-6.8,10.3h7.3c0-.1.5,23.4.5,23.4l-14.7.3-.3-15.2c0-2.3-1.4-3.4-3.3-3.3h-2.3s.4,18.7.4,18.7l-14.7.3-.9-45.6Z"/>
        <path class="st1" d="M535.6,790.2l27.5-5.9,2.8,13.1-13.2,2.8.5,2.5,12.2-2.6,2.8,13.1-12.2,2.6.6,2.9,13.8-2.9,2.8,13.1-28.2,6-9.5-44.6Z"/>
        <path class="st1" d="M565.5,783.9l14.4-6.2c9.8-4.2,21.1-3.9,26.1,8,2,4.8,1.6,9.6-.4,13.2l11.6,12.5-13.5,5.7-6.8-7.4-3.8,1.6,3.7,8.7-13.5,5.7-17.9-41.9ZM588.2,799.6l1.5-.6c3-1.3,4.2-3,2.7-6.3-1.4-3.3-3.5-3.7-6.5-2.4l-1.5.6,3.7,8.7Z"/>
      </g>
    </g>
  </g>
</svg>